<svg width="60" height="60" viewBox="0 0 60 60" fill="none" xmlns="http://www.w3.org/2000/svg">
<g clip-path="url(#clip0_39_1042)">
<path d="M7.03128e-05 48.78C7.03128e-05 49.82 0.36007 50.7 1.08007 51.42C1.80007 52.14 2.70007 52.5 3.78007 52.5H56.2801C57.2801 52.5 58.1601 52.14 58.9201 51.42C59.6801 50.7 60.0401 49.82 60.0001 48.78V18.78H7.03128e-05V48.78ZM7.03128e-05 15H60.0001V11.28C60.0001 10.24 59.6401 9.36 58.9201 8.64C58.2001 7.92 57.3201 7.54 56.2801 7.5H3.78007C2.74007 7.5 1.84007 7.88 1.08007 8.64C0.32007 9.4 -0.0399297 10.28 7.03128e-05 11.28V15ZM18.7801 35.64C18.7801 33.04 19.6801 30.84 21.4801 29.04C23.2801 27.24 25.5001 26.32 28.1401 26.28C29.7801 26.28 31.3401 26.72 32.8201 27.6C30.9401 30 30.0001 32.68 30.0001 35.64C30.0001 38.6 30.9401 41.28 32.8201 43.68C31.3401 44.56 29.7801 45 28.1401 45C25.5401 45 23.3201 44.1 21.4801 42.3C19.6401 40.5 18.7401 38.28 18.7801 35.64ZM33.7801 35.64C33.7801 33.04 34.6801 30.84 36.4801 29.04C38.2801 27.24 40.5001 26.32 43.1401 26.28C45.7801 26.24 47.9801 27.16 49.7401 29.04C51.5001 30.92 52.4201 33.12 52.5001 35.64C52.5801 38.16 51.6601 40.38 49.7401 42.3C47.8201 44.22 45.6201 45.12 43.1401 45C40.6601 44.88 38.4401 43.98 36.4801 42.3C34.5201 40.62 33.6201 38.4 33.7801 35.64Z" fill="#430d45"/>
</g>
<defs>
<clipPath id="clip0_39_1042">
<rect width="60" height="60" fill="#430d45"/>
</clipPath>
</defs>
</svg>
