<svg width="60" height="60" viewBox="0 0 60 60" fill="none" xmlns="http://www.w3.org/2000/svg">
<g clip-path="url(#clip0_39_1037)">
<path fill-rule="evenodd" clip-rule="evenodd" d="M52.943 14.1177H7.06069V8.82353C7.06069 7.83528 7.83712 7.05881 8.82537 7.05881H14.1195V8.82353C14.1195 9.81175 14.896 10.5883 15.8842 10.5883C16.8724 10.5883 17.6489 9.81175 17.6489 8.82353V7.05881H42.3548V8.82353C42.3548 9.81175 43.1312 10.5883 44.1195 10.5883C45.1077 10.5883 45.8842 9.81175 45.8842 8.82353V7.05881H51.1783C52.1665 7.05881 52.943 7.83528 52.943 8.82353V14.1177ZM38.0136 40.6588C38.0136 44.8588 34.7313 47.8941 29.9312 47.8941C25.9077 47.8941 23.0136 46.2353 21.0724 43.8706L23.896 41.2588C25.5548 43.2 27.4254 44.2588 30.0018 44.2588C32.2607 44.2588 33.9901 42.9177 33.9901 40.8353V40.7647C33.9901 38.5058 31.9077 37.2353 28.6607 37.2353H26.7901L26.1195 34.7294L32.3666 28.2H22.3783V24.7059H37.6607V27.7059L31.2018 34.2C34.696 34.6235 38.0136 36.3882 38.0136 40.5882V40.6588ZM51.1783 3.52941H45.8842V1.76472C45.8842 0.776469 45.1077 0 44.1195 0C43.1312 0 42.3548 0.776469 42.3548 1.76472V3.52941H17.6489V1.76472C17.6489 0.776469 16.8724 0 15.8842 0C14.896 0 14.1195 0.776469 14.1195 1.76472V3.52941H8.82537C5.89597 3.52941 3.53125 5.89412 3.53125 8.82353V60H56.4724V8.82353C56.4724 5.89412 54.1077 3.52941 51.1783 3.52941Z" fill="#430d45"/>
</g>
<defs>
<clipPath id="clip0_39_1037">
<rect width="60" height="60" fill="#430d45"/>
</clipPath>
</defs>
</svg>
