<svg width="60" height="60" viewBox="0 0 60 60" fill="none" xmlns="http://www.w3.org/2000/svg">
<g clip-path="url(#clip0_39_1047)">
<path d="M44.3973 20.0082L49.4823 25.0944C52.5281 28.1402 52.5281 32.6424 52.5281 32.6424L53.3372 31.2863C54.6695 29.0528 55.69 26.3719 55.52 24.1673C55.2421 20.5588 52.9665 17.7783 51.6061 16.4185L49.7959 14.609L53.395 11.0093L40.3662 10.5439L40.8322 23.5721L44.3973 20.0082Z" fill="#430d45"/>
<path d="M15.6037 40.1852L10.5181 35.1009C7.47234 32.0539 7.47234 27.5522 7.47234 27.5522L6.66321 28.9077C5.33163 31.1406 4.31044 33.822 4.48044 36.0261C4.75829 39.6358 7.03321 42.4162 8.39499 43.7754L10.2045 45.5857L6.60488 49.1847L19.6343 49.6501L19.1683 36.6226L15.6037 40.1852Z" fill="#430d45"/>
<path d="M17.7021 11.2966C17.7021 11.7507 17.8753 12.0963 18.2222 12.3341C18.5677 12.5718 19.0928 12.7562 19.7946 12.8854V9.77246C19.0062 9.85962 18.4592 10.0353 18.157 10.2999C17.8539 10.5646 17.7021 10.8964 17.7021 11.2966Z" fill="#430d45"/>
<path d="M23.8881 16.9945C23.5575 16.7625 23.0526 16.5869 22.3721 16.4683V19.5154C23.7118 19.3429 24.3817 18.8454 24.3817 18.0238C24.3817 17.5709 24.2174 17.2272 23.8881 16.9945Z" fill="#430d45"/>
<path d="M35.7034 14.652C35.7034 6.56016 29.1433 0 21.0514 0C12.959 0 6.39941 6.56016 6.39941 14.652C6.39941 22.7445 12.959 29.304 21.0514 29.304C29.1433 29.3047 35.7034 22.7451 35.7034 14.652ZM26.4977 21.2179C25.5305 22.0069 24.1563 22.4987 22.3724 22.6925V24.3634H19.7945V22.7746C18.7345 22.742 17.7379 22.648 16.8027 22.4918C15.868 22.3343 15.0928 22.1154 14.4768 21.8344V18.6569C14.8977 18.8086 15.3085 18.941 15.7093 19.0545C16.1076 19.168 16.5203 19.2653 16.9406 19.3468C17.3621 19.4276 17.8062 19.4923 18.2697 19.5412C18.7345 19.5895 19.2432 19.6196 19.7945 19.6302V16.0796C19.1134 15.9823 18.4385 15.85 17.7674 15.6819C17.0975 15.5151 16.496 15.2642 15.9603 14.928C15.4253 14.5937 14.9893 14.1502 14.6544 13.5983C14.3207 13.0476 14.1519 12.3344 14.1519 11.46C14.1519 10.7456 14.2817 10.1115 14.5409 9.55451C14.7999 8.99754 15.1731 8.51704 15.6598 8.11126C16.1465 7.70547 16.738 7.37929 17.4355 7.13027C18.1324 6.88252 18.9183 6.70938 19.7939 6.61222V4.94064H22.3717V6.56144C23.1602 6.60536 23.9636 6.69507 24.779 6.82987C25.5944 6.96468 26.3426 7.15223 27.0238 7.38997V10.5995C25.3611 10.0595 23.808 9.75588 22.3717 9.69127V13.2909C23.0522 13.3988 23.7253 13.5412 24.3902 13.7199C25.0551 13.8987 25.649 14.1584 26.174 14.499C26.6972 14.839 27.1249 15.2849 27.4542 15.8362C27.7841 16.3869 27.9491 17.0957 27.9491 17.9607C27.9497 19.343 27.4648 20.4281 26.4977 21.2179Z" fill="#430d45"/>
<path d="M39.2331 30.6958C31.1405 30.6958 24.5811 37.2554 24.5811 45.3478C24.5811 53.4397 31.1406 59.9998 39.2331 59.9998C47.3249 59.9998 53.8851 53.4397 53.8851 45.3478C53.8851 37.2554 47.3249 30.6958 39.2331 30.6958ZM45.1384 53.6649C44.9007 53.7621 44.6222 53.8511 44.3036 53.932C43.9837 54.0136 43.6519 54.0801 43.3063 54.1346C42.9601 54.1885 42.6057 54.2293 42.2445 54.2562C41.8826 54.2826 41.5338 54.2963 41.1983 54.2963C36.7349 54.2963 34.0115 52.5238 33.028 48.9787H30.9368V46.369H32.6228C32.6115 46.2178 32.604 46.0686 32.5983 45.9224C32.5933 45.7769 32.5902 45.6289 32.5902 45.4764C32.5902 45.1308 32.6064 44.7953 32.6391 44.4716H30.9368V41.8611H33.0769C33.6163 40.0453 34.5735 38.6484 35.9465 37.67C37.3176 36.6915 39.0807 36.2022 41.2315 36.2022C41.5564 36.2022 41.8983 36.2192 42.2614 36.2511C42.6227 36.2838 42.9714 36.327 43.307 36.381C43.6413 36.4356 43.9556 36.502 44.2472 36.5835C44.5389 36.6651 44.7829 36.7491 44.9766 36.835V40.0771C44.4793 39.9046 43.9223 39.7584 43.3069 39.6392C42.6909 39.5207 42.0801 39.4611 41.4748 39.4611C39.3346 39.4611 37.8921 40.2608 37.1456 41.8602H42.6256V44.4709H36.5466C36.5133 44.7619 36.4976 45.0705 36.4976 45.3955C36.4976 45.5673 36.5033 45.7467 36.5133 45.9305C36.5246 46.1143 36.5353 46.2598 36.5466 46.3683H41.4107V48.9782H37.1136C37.4699 49.7133 38.0062 50.2396 38.7193 50.5594C39.4325 50.8775 40.3727 51.0374 41.5399 51.0374C41.8102 51.0374 42.1038 51.0217 42.4231 50.989C42.7423 50.9564 43.0635 50.9137 43.3878 50.8585C43.7121 50.8052 44.0257 50.7406 44.3286 50.6641C44.6297 50.5888 44.9013 50.508 45.139 50.4208V53.6649H45.1384Z" fill="#430d45"/>
</g>
<defs>
<clipPath id="clip0_39_1047">
<rect width="60" height="60" fill="#430d45"/>
</clipPath>
</defs>
</svg>
