<svg width="60" height="60" viewBox="0 0 60 60" fill="none" xmlns="http://www.w3.org/2000/svg">
<path d="M16.3154 15.0229C15.9 14.7251 15.1938 14.4389 14.2061 14.1689V20.4088C15.5585 20.3442 16.4906 19.8503 17.0077 18.9248C17.2753 18.4495 17.4091 17.9003 17.4091 17.2749C17.4091 16.2899 17.0467 15.5377 16.3154 15.0229Z" fill="#430d45"/>
<path d="M10.8506 7.10297C10.4074 7.69586 10.1885 8.31698 10.1885 8.96518C10.1885 9.74757 10.4468 10.359 10.9709 10.8022C11.4992 11.2431 12.1984 11.5545 13.0802 11.7277V6.15234C12.0391 6.19605 11.2961 6.50777 10.8506 7.10297Z" fill="#430d45"/>
<path d="M13.6314 0C6.09905 0 0 6.10369 0 13.6337C0 21.1637 6.10369 27.2674 13.6314 27.2674C21.1591 27.2674 27.2628 21.1637 27.2628 13.6337C27.2628 6.10369 21.1637 0 13.6314 0ZM17.49 21.1823C16.7331 21.6715 15.6394 21.9968 14.2061 22.1538V24.4546H13.0799V22.1538C10.7837 22.0038 9.21896 21.1893 8.3975 19.7099C7.94732 18.909 7.7261 17.8315 7.7261 16.4721H9.81919C9.88146 17.5565 10.057 18.3459 10.3363 18.8444C10.8325 19.7374 11.7417 20.2382 13.0803 20.3488V13.8855C11.3681 13.5602 10.0988 13.0199 9.282 12.2584C8.46518 11.4992 8.05678 10.4469 8.05678 9.10371C8.05678 7.9013 8.49767 6.81917 9.37675 5.85462C10.2605 4.89007 11.4954 4.40083 13.0807 4.38458V2.80626H14.2069V4.35945C15.7852 4.47006 16.9876 4.93184 17.8253 5.74865C18.67 6.56547 19.1132 7.64334 19.1499 8.9842H17.0777C17.0224 8.38435 16.8608 7.86727 16.5908 7.43101C16.09 6.63238 15.2963 6.21236 14.2069 6.17562V11.9517C16.0439 12.4642 17.2854 12.9465 17.9429 13.3962C19.0115 14.1392 19.5421 15.2403 19.5421 16.6941C19.5483 18.7984 18.8606 20.2939 17.49 21.1823Z" fill="#430d45"/>
<path d="M13.6314 32.7344C6.09673 32.7344 0 38.8404 0 46.3658C0 53.8958 6.10369 59.9995 13.6314 59.9995C21.1591 59.9995 27.2628 53.8958 27.2628 46.3658C27.2632 38.8381 21.1637 32.7344 13.6314 32.7344ZM18.8123 55.2506C18.2124 55.5391 17.5731 55.6845 16.8925 55.6845C16.3963 55.6845 15.5632 55.4954 14.391 55.1121C13.2234 54.7335 12.3025 54.5444 11.6218 54.5444C10.9965 54.5444 10.3989 54.6503 9.84047 54.8673C9.50825 55.0011 9.08824 55.2227 8.56419 55.5364L7.33897 53.7755C8.26678 53.1223 9.02133 52.3979 9.59604 51.6109C10.1661 50.8215 10.45 49.9633 10.45 49.0378C10.45 48.7725 10.3993 48.4654 10.2906 48.11C10.2214 47.8838 10.1131 47.5817 9.95378 47.1915H7.21211V45.9017H9.15747C9.15747 45.943 9.01901 45.6847 8.7421 45.1262C8.46286 44.5678 8.2807 44.1617 8.18827 43.9056C8.10976 43.6655 8.04285 43.3862 7.97826 43.0726C7.92064 42.752 7.89279 42.4105 7.89279 42.0504C7.89279 40.7606 8.42109 39.6019 9.47112 38.5844C10.5165 37.5668 12.021 37.0544 13.9826 37.0544C15.8266 37.0544 17.2181 37.5599 18.1641 38.5658C19.1078 39.5764 19.5993 41.0027 19.6272 42.8444H17.3287C17.3287 41.596 17.0379 40.6477 16.4566 40.0014C15.8726 39.3528 14.9866 39.0276 13.7958 39.0276C12.6421 39.0276 11.7626 39.33 11.1697 39.9391C10.5745 40.5483 10.2744 41.2846 10.2744 42.1521C10.2744 42.5814 10.3692 43.0242 10.556 43.4767C10.7381 43.9312 11.133 44.7437 11.7398 45.909H15.8061V47.2011H12.2959C12.3791 47.5798 12.439 47.8772 12.4735 48.0942C12.5125 48.3088 12.5264 48.5304 12.5264 48.7609C12.5264 49.587 12.2797 50.4061 11.7881 51.2117C11.2873 52.0193 10.5119 52.8156 9.45294 53.6119C10.023 53.3234 10.5838 53.0902 11.1376 52.9243C11.6915 52.7556 12.2337 52.6729 12.76 52.6729C13.3552 52.6729 14.1469 52.816 15.1208 53.1115C16.1039 53.4046 16.7409 53.55 17.0499 53.55C17.4374 53.55 17.7905 53.4738 18.1185 53.3261C18.3122 53.2337 18.6193 53.0445 19.0231 52.756L20.0476 54.4338C19.5924 54.7934 19.1793 55.068 18.8123 55.2506Z" fill="#430d45"/>
<path d="M46.3687 0C38.8363 0 32.7373 6.10369 32.7373 13.6337C32.7373 21.1637 38.841 27.2674 46.3687 27.2674C53.8964 27.2674 60.0001 21.1614 60.0001 13.6337C60.0005 6.10369 53.8964 0 46.3687 0ZM51.748 20.8478C50.5409 22.4056 48.9096 23.183 46.8579 23.183C45.0901 23.183 43.6088 22.546 42.3995 21.2678C41.2663 20.0654 40.5326 18.39 40.2163 16.2416H37.1056L37.6227 14.49H40.0434C40.0248 14.1531 40.0155 13.807 40.0155 13.4515C40.0155 13.1468 40.0248 12.8424 40.0434 12.5377H37.108L37.6274 10.7837H40.2418C40.5257 9.27929 41.0493 7.97517 41.8108 6.87216C43.1007 5.00996 44.8708 4.07983 47.1372 4.07983C49.0663 4.07983 50.5549 4.68432 51.6211 5.896C52.6921 7.10537 53.2803 8.48065 53.4002 10.0199H51.3856C51.1617 8.85232 50.7096 7.92451 50.0243 7.24151C49.3436 6.55851 48.3902 6.21701 47.1627 6.21701C45.6582 6.21701 44.4396 6.84702 43.5211 8.10705C43.0086 8.79933 42.6466 9.69234 42.4204 10.7865H49.3064L48.787 12.5404H42.1709C42.1407 12.9604 42.1318 13.4059 42.1318 13.8743C42.1318 14.0866 42.1365 14.2943 42.1411 14.4927H49.3041L48.7847 16.2443H42.3256C42.524 17.3241 42.8748 18.2589 43.378 19.0482C44.2041 20.3635 45.4478 21.0237 47.1027 21.0237C48.6258 21.0237 49.7887 20.3291 50.5874 18.9376C51.012 18.2039 51.3168 17.2413 51.5245 16.0482H53.539C53.3542 17.9537 52.7613 19.5552 51.748 20.8478Z" fill="#430d45"/>
<path d="M46.3687 32.7344C38.8363 32.7344 32.7373 38.8404 32.7373 46.3658C32.7373 53.8981 38.841 59.9995 46.3687 59.9995C53.8964 59.9995 60.0001 53.8958 60.0001 46.3658C60.0005 38.8381 53.8964 32.7344 46.3687 32.7344ZM52.9987 42.962V44.7503H49.634L47.9308 47.644H52.5644V49.4323H47.6121V55.6837H45.1013V49.4323H40.2882V47.644H44.7857L43.0825 44.7503H39.6624V42.962H42.0325L38.5525 37.0405H41.5042L46.3571 46.0057L51.2286 37.0405H54.1872L50.691 42.962H52.9987Z" fill="#430d45"/>
</svg>
