<svg width="50" height="60" viewBox="0 0 50 60" fill="none" xmlns="http://www.w3.org/2000/svg">
<path d="M0.188628 31.5964L1.28141 33.0489L13.8056 27.2581L25.3921 44.3731L47.7741 33.045C49.9477 31.9449 50.6488 29.5098 49.3433 27.6057L38.2917 11.5132L36.3189 12.4521C35.7665 12.7143 35.3205 13.3493 35.3205 13.8697C35.3205 14.1464 35.3205 14.4707 35.3205 14.8144C35.3205 15.8572 33.5451 17.5739 31.3552 18.6468L23.646 22.4247C21.455 23.4986 19.6808 23.4714 19.6808 22.3636C19.6808 22.3636 19.6808 21.915 19.6808 21.3606C19.6808 20.8062 19.2326 20.5693 18.6835 20.8324L16.4892 21.8752V20.8033C16.4892 20.245 16.0367 19.5896 15.4789 19.34L12.8897 18.1807C12.3308 17.9312 11.4203 17.9195 10.8538 18.1555L6.29389 20.0527C5.72851 20.2887 5.26839 20.9324 5.26839 21.4907V27.2077C5.26839 27.2077 3.88586 27.864 2.18103 28.6757C0.477287 29.4855 -0.414737 30.7924 0.188628 31.5964Z" fill="#430d45"/>
<path d="M26.1666 9.86558C25.1531 9.61993 24.7299 9.42477 24.7006 9.09659C24.6745 8.80918 24.8883 8.49459 25.6327 8.44022C26.4586 8.38002 27.0174 8.57713 27.3159 8.6781L27.5535 7.49451C27.1379 7.35955 26.6083 7.24304 25.8498 7.27702L25.7662 6.37598L24.6441 6.45657L24.732 7.43043C23.5253 7.7256 22.8807 8.48391 22.9643 9.39661C23.0543 10.3909 23.9388 10.8433 25.1997 11.122C26.082 11.3162 26.4716 11.5346 26.5074 11.924C26.5421 12.325 26.1178 12.594 25.4537 12.6425C24.7082 12.6969 24.0125 12.5308 23.5101 12.3308L23.2757 13.5542C23.7315 13.7387 24.4933 13.8785 25.2638 13.8523L25.3538 14.8262L26.4868 14.7446L26.3902 13.6902C27.6902 13.3989 28.3283 12.5677 28.2469 11.655C28.1612 10.721 27.5709 10.1967 26.1666 9.86558Z" fill="#430d45"/>
<path d="M24.3647 0.0957575C24.3647 0.0957575 15.5312 0.356944 15.6756 11.4112C15.7928 20.4673 24.3158 19.6459 24.3158 19.6459C24.3158 19.6459 33.4716 19.609 32.7022 6.4555C32.2507 -1.28688 24.3647 0.0957575 24.3647 0.0957575ZM18.0587 10.9034H18.0554C17.9002 10.9034 17.7743 10.7927 17.7732 10.6539C17.6615 2.06096 24.6154 1.75511 24.6848 1.75317C24.8595 1.74055 24.9702 1.85804 24.9767 1.99688C24.9821 2.1367 24.8606 2.25321 24.7043 2.25904C24.4396 2.26778 18.2344 2.56392 18.3397 10.6481C18.3397 10.7879 18.2149 10.9025 18.0587 10.9034ZM24.6403 17.2535C24.6403 17.2535 19.9632 17.4739 20.0543 11.3161C20.1574 4.48737 25.8481 3.60769 25.8481 3.60769C25.8481 3.60769 30.9561 2.72704 30.8498 7.99737C30.6501 17.9836 24.6403 17.2535 24.6403 17.2535Z" fill="#430d45"/>
<path d="M18.7186 59.1694C20.8835 60.2841 24.3854 60.2753 26.5428 59.149L45.3241 49.3376C47.4815 48.2112 49.2308 45.4868 49.2308 43.2516V35.6093L24.635 47.985L12.953 30.5186L3.42285 34.782V47.2413C3.42285 49.4754 5.17651 52.1902 7.34038 53.3058L8.3572 53.8302V42.973L14.6871 46.5004V57.0906L18.7186 59.1694Z" fill="#430d45"/>
</svg>
