<svg width="60" height="60" viewBox="0 0 60 60" fill="none" xmlns="http://www.w3.org/2000/svg">
<g clip-path="url(#clip0_39_1032)">
<path d="M60 30C60 13.458 46.542 0 30 0C13.458 0 0 13.458 0 30C0 46.542 13.458 60 30 60C46.542 60 60 46.542 60 30ZM28.578 36.186L34.818 44.469C35.0552 44.7836 35.2281 45.1418 35.3268 45.5232C35.4255 45.9046 35.4482 46.3017 35.3934 46.6918C35.3387 47.082 35.2076 47.4575 35.0077 47.797C34.8079 48.1365 34.5431 48.4333 34.2285 48.6705C33.9139 48.9077 33.5557 49.0806 33.1743 49.1793C32.7929 49.278 32.3958 49.3006 32.0057 49.2459C31.6155 49.1912 31.24 49.0601 30.9005 48.8602C30.561 48.6604 30.2642 48.3956 30.027 48.081L21 36.102C20.5909 35.559 20.3784 34.8932 20.3973 34.2136C20.4162 33.534 20.6653 32.881 21.1039 32.3615C21.5425 31.8421 22.1445 31.487 22.8113 31.3544C23.4781 31.2219 24.1701 31.3198 24.774 31.632C25.476 31.743 26.25 31.8 27.105 31.8C29.211 31.8 30.828 30.366 31.584 28.095H22.284C21.6873 28.095 21.115 27.8579 20.693 27.436C20.2711 27.014 20.034 26.4417 20.034 25.845C20.034 25.2483 20.2711 24.676 20.693 24.254C21.115 23.8321 21.6873 23.595 22.284 23.595H31.971C31.701 21.435 30.786 19.746 29.439 18.855H23.034C22.2383 18.855 21.4753 18.5389 20.9127 17.9763C20.3501 17.4137 20.034 16.6506 20.034 15.855C20.034 15.0594 20.3501 14.2963 20.9127 13.7337C21.4753 13.1711 22.2383 12.855 23.034 12.855H38.034C38.8297 12.855 39.5927 13.1711 40.1553 13.7337C40.7179 14.2963 41.034 15.0594 41.034 15.855C41.034 16.6506 40.7179 17.4137 40.1553 17.9763C39.5927 18.5389 38.8297 18.855 38.034 18.855H35.199C35.898 20.256 36.339 21.867 36.495 23.595H38.784C39.3807 23.595 39.953 23.8321 40.375 24.254C40.7969 24.676 41.034 25.2483 41.034 25.845C41.034 26.4417 40.7969 27.014 40.375 27.436C39.953 27.8579 39.3807 28.095 38.784 28.095H36.234C35.34 32.316 32.604 35.553 28.578 36.186Z" fill="#430d45"/>
</g>
<defs>
<clipPath id="clip0_39_1032">
<rect width="60" height="60" fill="#430d45"/>
</clipPath>
</defs>
</svg>
