<svg width="158" height="28" viewBox="0 0 158 28" fill="none" xmlns="http://www.w3.org/2000/svg">
<path d="M5.5 22C4.76667 22 4.11667 21.8 3.55 21.4C2.98333 21 2.54167 20.4583 2.225 19.775C1.90833 19.075 1.75 18.275 1.75 17.375V3.725C1.75 3.35833 1.86667 3.05833 2.1 2.825C2.33333 2.59167 2.63333 2.475 3 2.475C3.36667 2.475 3.66667 2.59167 3.9 2.825C4.13333 3.05833 4.25 3.35833 4.25 3.725V17.375C4.25 17.9917 4.36667 18.5 4.6 18.9C4.83333 19.3 5.13333 19.5 5.5 19.5H6.125C6.45833 19.5 6.725 19.6167 6.925 19.85C7.14167 20.0833 7.25 20.3833 7.25 20.75C7.25 21.1167 7.09167 21.4167 6.775 21.65C6.45833 21.8833 6.05 22 5.55 22H5.5ZM16.6633 22.1C15.2799 22.1 14.0466 21.8083 12.9633 21.225C11.8966 20.625 11.0549 19.8083 10.4383 18.775C9.83828 17.725 9.53828 16.525 9.53828 15.175C9.53828 13.8083 9.82161 12.6083 10.3883 11.575C10.9716 10.525 11.7716 9.70833 12.7883 9.125C13.8049 8.525 14.9716 8.225 16.2883 8.225C17.5883 8.225 18.7049 8.51667 19.6383 9.1C20.5716 9.66667 21.2799 10.4583 21.7633 11.475C22.2633 12.475 22.5133 13.6333 22.5133 14.95C22.5133 15.2667 22.4049 15.5333 22.1883 15.75C21.9716 15.95 21.6966 16.05 21.3633 16.05H11.2883V14.05H21.2883L20.2633 14.75C20.2466 13.9167 20.0799 13.175 19.7633 12.525C19.4466 11.8583 18.9966 11.3333 18.4133 10.95C17.8299 10.5667 17.1216 10.375 16.2883 10.375C15.3383 10.375 14.5216 10.5833 13.8383 11C13.1716 11.4167 12.6633 11.9917 12.3133 12.725C11.9633 13.4417 11.7883 14.2583 11.7883 15.175C11.7883 16.0917 11.9966 16.9083 12.4133 17.625C12.8299 18.3417 13.4049 18.9083 14.1383 19.325C14.8716 19.7417 15.7133 19.95 16.6633 19.95C17.1799 19.95 17.7049 19.8583 18.2383 19.675C18.7883 19.475 19.2299 19.25 19.5633 19C19.8133 18.8167 20.0799 18.725 20.3633 18.725C20.6633 18.7083 20.9216 18.7917 21.1383 18.975C21.4216 19.225 21.5716 19.5 21.5883 19.8C21.6049 20.1 21.4716 20.3583 21.1883 20.575C20.6216 21.025 19.9133 21.3917 19.0633 21.675C18.2299 21.9583 17.4299 22.1 16.6633 22.1ZM38.5656 22.025C38.199 22.025 37.8906 21.9083 37.6406 21.675C37.4073 21.425 37.2906 21.1167 37.2906 20.75V14.6C37.2906 13.65 37.1156 12.875 36.7656 12.275C36.4156 11.675 35.9406 11.2333 35.3406 10.95C34.7573 10.65 34.0823 10.5 33.3156 10.5C32.6156 10.5 31.9823 10.6417 31.4156 10.925C30.849 11.2083 30.399 11.5917 30.0656 12.075C29.7323 12.5417 29.5656 13.0833 29.5656 13.7H27.9906C27.9906 12.65 28.2406 11.7167 28.7406 10.9C29.2573 10.0667 29.9573 9.40833 30.8406 8.925C31.724 8.44167 32.7156 8.2 33.8156 8.2C34.9656 8.2 35.9906 8.45 36.8906 8.95C37.8073 9.43333 38.524 10.15 39.0406 11.1C39.574 12.05 39.8406 13.2167 39.8406 14.6V20.75C39.8406 21.1167 39.7156 21.425 39.4656 21.675C39.2323 21.9083 38.9323 22.025 38.5656 22.025ZM28.2906 22.025C27.924 22.025 27.6156 21.9083 27.3656 21.675C27.1323 21.425 27.0156 21.1167 27.0156 20.75V9.6C27.0156 9.21667 27.1323 8.90833 27.3656 8.675C27.6156 8.44167 27.924 8.325 28.2906 8.325C28.674 8.325 28.9823 8.44167 29.2156 8.675C29.449 8.90833 29.5656 9.21667 29.5656 9.6V20.75C29.5656 21.1167 29.449 21.425 29.2156 21.675C28.9823 21.9083 28.674 22.025 28.2906 22.025ZM51.5066 22.1C50.2066 22.1 49.0316 21.8 47.9816 21.2C46.9483 20.5833 46.1233 19.75 45.5066 18.7C44.9066 17.65 44.6066 16.4667 44.6066 15.15C44.6066 13.8333 44.8816 12.6583 45.4316 11.625C45.9983 10.575 46.765 9.75 47.7316 9.15C48.6983 8.53333 49.79 8.225 51.0066 8.225C51.99 8.225 52.8983 8.43333 53.7316 8.85C54.565 9.25 55.265 9.8 55.8316 10.5V3.75C55.8316 3.36667 55.9483 3.05833 56.1816 2.825C56.4316 2.59167 56.74 2.475 57.1066 2.475C57.49 2.475 57.7983 2.59167 58.0316 2.825C58.265 3.05833 58.3816 3.36667 58.3816 3.75V15.15C58.3816 16.4667 58.0733 17.65 57.4566 18.7C56.8566 19.75 56.04 20.5833 55.0066 21.2C53.9733 21.8 52.8066 22.1 51.5066 22.1ZM51.5066 19.85C52.3566 19.85 53.115 19.65 53.7816 19.25C54.4483 18.8333 54.9733 18.2667 55.3566 17.55C55.74 16.8333 55.9316 16.0333 55.9316 15.15C55.9316 14.25 55.74 13.45 55.3566 12.75C54.9733 12.05 54.4483 11.5 53.7816 11.1C53.115 10.6833 52.3566 10.475 51.5066 10.475C50.6733 10.475 49.915 10.6833 49.2316 11.1C48.565 11.5 48.0316 12.05 47.6316 12.75C47.2483 13.45 47.0566 14.25 47.0566 15.15C47.0566 16.0333 47.2483 16.8333 47.6316 17.55C48.0316 18.2667 48.565 18.8333 49.2316 19.25C49.915 19.65 50.6733 19.85 51.5066 19.85ZM65.3598 13.45C65.3598 12.45 65.6014 11.5583 66.0848 10.775C66.5848 9.975 67.2514 9.34167 68.0848 8.875C68.9181 8.40833 69.8348 8.175 70.8348 8.175C71.8348 8.175 72.5764 8.34167 73.0598 8.675C73.5598 8.99167 73.7514 9.375 73.6348 9.825C73.5848 10.0583 73.4848 10.2417 73.3348 10.375C73.2014 10.4917 73.0431 10.5667 72.8598 10.6C72.6764 10.6333 72.4764 10.625 72.2598 10.575C71.1931 10.3583 70.2348 10.3417 69.3848 10.525C68.5348 10.7083 67.8598 11.05 67.3598 11.55C66.8764 12.05 66.6348 12.6833 66.6348 13.45H65.3598ZM65.3848 22C64.9848 22 64.6764 21.9 64.4598 21.7C64.2431 21.4833 64.1348 21.1667 64.1348 20.75V9.575C64.1348 9.175 64.2431 8.86667 64.4598 8.65C64.6764 8.43333 64.9848 8.325 65.3848 8.325C65.8014 8.325 66.1098 8.43333 66.3098 8.65C66.5264 8.85 66.6348 9.15833 66.6348 9.575V20.75C66.6348 21.15 66.5264 21.4583 66.3098 21.675C66.1098 21.8917 65.8014 22 65.3848 22ZM79.068 22C78.7013 22 78.393 21.8833 78.143 21.65C77.9096 21.4 77.793 21.0917 77.793 20.725V9.6C77.793 9.21667 77.9096 8.90833 78.143 8.675C78.393 8.44167 78.7013 8.325 79.068 8.325C79.4513 8.325 79.7596 8.44167 79.993 8.675C80.2263 8.90833 80.343 9.21667 80.343 9.6V20.725C80.343 21.0917 80.2263 21.4 79.993 21.65C79.7596 21.8833 79.4513 22 79.068 22ZM79.068 6.1C78.618 6.1 78.2263 5.94167 77.893 5.625C77.5763 5.29167 77.418 4.9 77.418 4.45C77.418 4 77.5763 3.61667 77.893 3.3C78.2263 2.96667 78.618 2.8 79.068 2.8C79.518 2.8 79.9013 2.96667 80.218 3.3C80.5513 3.61667 80.718 4 80.718 4.45C80.718 4.9 80.5513 5.29167 80.218 5.625C79.9013 5.94167 79.518 6.1 79.068 6.1ZM92.0369 22.1C90.7869 22.1 89.6786 21.8083 88.7119 21.225C87.7619 20.625 87.0119 19.8083 86.4619 18.775C85.9119 17.725 85.6369 16.525 85.6369 15.175C85.6369 13.8083 85.9286 12.6083 86.5119 11.575C87.1119 10.525 87.9286 9.70833 88.9619 9.125C89.9952 8.525 91.1869 8.225 92.5369 8.225C93.8702 8.225 95.0536 8.525 96.0869 9.125C97.1202 9.70833 97.9286 10.525 98.5119 11.575C99.1119 12.6083 99.4119 13.8083 99.4119 15.175H97.9369C97.9369 16.525 97.6786 17.725 97.1619 18.775C96.6619 19.8083 95.9702 20.625 95.0869 21.225C94.2036 21.8083 93.1869 22.1 92.0369 22.1ZM92.4869 27.675C91.3036 27.675 90.1952 27.4417 89.1619 26.975C88.1286 26.5083 87.2536 25.825 86.5369 24.925C86.3202 24.6417 86.2369 24.35 86.2869 24.05C86.3536 23.75 86.5202 23.5083 86.7869 23.325C87.0869 23.125 87.3952 23.0583 87.7119 23.125C88.0452 23.1917 88.3119 23.3583 88.5119 23.625C88.9619 24.1917 89.5286 24.6333 90.2119 24.95C90.8952 25.2667 91.6702 25.425 92.5369 25.425C93.3369 25.425 94.0702 25.2333 94.7369 24.85C95.4202 24.4667 95.9619 23.9 96.3619 23.15C96.7619 22.4 96.9619 21.4833 96.9619 20.4V16.85L97.7869 14.65L99.4119 15.175V20.575C99.4119 21.8917 99.1202 23.0833 98.5369 24.15C97.9536 25.2333 97.1369 26.0917 96.0869 26.725C95.0536 27.3583 93.8536 27.675 92.4869 27.675ZM92.5369 19.85C93.4036 19.85 94.1702 19.65 94.8369 19.25C95.5036 18.85 96.0202 18.3 96.3869 17.6C96.7702 16.9 96.9619 16.0917 96.9619 15.175C96.9619 14.2583 96.7702 13.45 96.3869 12.75C96.0202 12.0333 95.5036 11.475 94.8369 11.075C94.1702 10.675 93.4036 10.475 92.5369 10.475C91.6702 10.475 90.9036 10.675 90.2369 11.075C89.5702 11.475 89.0452 12.0333 88.6619 12.75C88.2786 13.45 88.0869 14.2583 88.0869 15.175C88.0869 16.0917 88.2786 16.9 88.6619 17.6C89.0452 18.3 89.5702 18.85 90.2369 19.25C90.9036 19.65 91.6702 19.85 92.5369 19.85ZM105.732 17.025C105.365 17.025 105.057 16.9083 104.807 16.675C104.574 16.425 104.457 16.1167 104.457 15.75V3.75C104.457 3.36667 104.574 3.05833 104.807 2.825C105.057 2.59167 105.365 2.475 105.732 2.475C106.115 2.475 106.424 2.59167 106.657 2.825C106.89 3.05833 107.007 3.36667 107.007 3.75V15.75C107.007 16.1167 106.89 16.425 106.657 16.675C106.424 16.9083 106.115 17.025 105.732 17.025ZM116.007 22.025C115.64 22.025 115.332 21.9083 115.082 21.675C114.849 21.425 114.732 21.1167 114.732 20.75V14.6C114.732 13.65 114.557 12.875 114.207 12.275C113.857 11.675 113.382 11.2333 112.782 10.95C112.199 10.65 111.524 10.5 110.757 10.5C110.057 10.5 109.424 10.6417 108.857 10.925C108.29 11.2083 107.84 11.5917 107.507 12.075C107.174 12.5417 107.007 13.0833 107.007 13.7H105.432C105.432 12.65 105.682 11.7167 106.182 10.9C106.699 10.0667 107.399 9.40833 108.282 8.925C109.165 8.44167 110.157 8.2 111.257 8.2C112.407 8.2 113.432 8.45 114.332 8.95C115.249 9.43333 115.965 10.15 116.482 11.1C117.015 12.05 117.282 13.2167 117.282 14.6V20.75C117.282 21.1167 117.157 21.425 116.907 21.675C116.674 21.9083 116.374 22.025 116.007 22.025ZM105.732 22.025C105.365 22.025 105.057 21.9083 104.807 21.675C104.574 21.425 104.457 21.1167 104.457 20.75V9.6C104.457 9.21667 104.574 8.90833 104.807 8.675C105.057 8.44167 105.365 8.325 105.732 8.325C106.115 8.325 106.424 8.44167 106.657 8.675C106.89 8.90833 107.007 9.21667 107.007 9.6V20.75C107.007 21.1167 106.89 21.425 106.657 21.675C106.424 21.9083 106.115 22.025 105.732 22.025ZM127.747 22C126.914 22 126.164 21.7917 125.497 21.375C124.831 20.9417 124.306 20.3583 123.922 19.625C123.539 18.8917 123.347 18.0667 123.347 17.15V5.225C123.347 4.85833 123.464 4.55833 123.697 4.325C123.931 4.09167 124.231 3.975 124.597 3.975C124.964 3.975 125.264 4.09167 125.497 4.325C125.731 4.55833 125.847 4.85833 125.847 5.225V17.15C125.847 17.8167 126.031 18.375 126.397 18.825C126.764 19.275 127.214 19.5 127.747 19.5H128.597C128.897 19.5 129.147 19.6167 129.347 19.85C129.564 20.0833 129.672 20.3833 129.672 20.75C129.672 21.1167 129.531 21.4167 129.247 21.65C128.981 21.8833 128.631 22 128.197 22H127.747ZM122.197 10.975C121.847 10.975 121.564 10.875 121.347 10.675C121.131 10.475 121.022 10.225 121.022 9.925C121.022 9.59167 121.131 9.325 121.347 9.125C121.564 8.925 121.847 8.825 122.197 8.825H127.972C128.322 8.825 128.606 8.925 128.822 9.125C129.039 9.325 129.147 9.59167 129.147 9.925C129.147 10.225 129.039 10.475 128.822 10.675C128.606 10.875 128.322 10.975 127.972 10.975H122.197Z" fill="#430d45"/>
<path d="M150.25 11.4989L145.25 16.4989L142.75 13.9989M136.5 4H156.5V21.5C156.5 22.8806 155.381 24 154 24H139C137.619 24 136.5 22.8806 136.5 21.5V4Z" stroke="#430d45" stroke-width="3" stroke-linecap="round" stroke-linejoin="round"/>
</svg>
