<svg width="278" height="153" viewBox="0 0 278 153" fill="none" xmlns="http://www.w3.org/2000/svg">
<path d="M234.315 15.0229C233.9 14.7251 233.194 14.4389 232.206 14.1689V20.4088C233.559 20.3442 234.491 19.8503 235.008 18.9248C235.275 18.4495 235.409 17.9003 235.409 17.2749C235.409 16.2899 235.047 15.5377 234.315 15.0229Z" fill="#FFFBD7"/>
<path d="M228.851 7.10297C228.407 7.69586 228.188 8.31698 228.188 8.96518C228.188 9.74757 228.447 10.359 228.971 10.8022C229.499 11.2431 230.198 11.5545 231.08 11.7277V6.15234C230.039 6.19605 229.296 6.50777 228.851 7.10297Z" fill="#FFFBD7"/>
<path d="M231.631 0C224.099 0 218 6.10369 218 13.6337C218 21.1637 224.104 27.2674 231.631 27.2674C239.159 27.2674 245.263 21.1637 245.263 13.6337C245.263 6.10369 239.164 0 231.631 0ZM235.49 21.1823C234.733 21.6715 233.639 21.9968 232.206 22.1538V24.4546H231.08V22.1538C228.784 22.0038 227.219 21.1893 226.398 19.7099C225.947 18.909 225.726 17.8315 225.726 16.4721H227.819C227.881 17.5565 228.057 18.3459 228.336 18.8444C228.832 19.7374 229.742 20.2382 231.08 20.3488V13.8855C229.368 13.5602 228.099 13.0199 227.282 12.2584C226.465 11.4992 226.057 10.4469 226.057 9.10371C226.057 7.9013 226.498 6.81917 227.377 5.85462C228.26 4.89007 229.495 4.40083 231.081 4.38458V2.80626H232.207V4.35945C233.785 4.47006 234.988 4.93184 235.825 5.74865C236.67 6.56547 237.113 7.64334 237.15 8.9842H235.078C235.022 8.38435 234.861 7.86727 234.591 7.43101C234.09 6.63238 233.296 6.21236 232.207 6.17562V11.9517C234.044 12.4642 235.285 12.9465 235.943 13.3962C237.011 14.1392 237.542 15.2403 237.542 16.6941C237.548 18.7984 236.861 20.2939 235.49 21.1823Z" fill="#FFFBD7"/>
<path d="M231.631 32.7346C224.097 32.7346 218 38.8406 218 46.366C218 53.896 224.104 59.9997 231.631 59.9997C239.159 59.9997 245.263 53.896 245.263 46.366C245.263 38.8383 239.164 32.7346 231.631 32.7346ZM236.812 55.2508C236.212 55.5393 235.573 55.6847 234.892 55.6847C234.396 55.6847 233.563 55.4956 232.391 55.1124C231.223 54.7337 230.303 54.5446 229.622 54.5446C228.996 54.5446 228.399 54.6506 227.84 54.8675C227.508 55.0014 227.088 55.223 226.564 55.5366L225.339 53.7757C226.267 53.1225 227.021 52.3981 227.596 51.6111C228.166 50.8218 228.45 49.9636 228.45 49.0381C228.45 48.7728 228.399 48.4657 228.291 48.1103C228.221 47.884 228.113 47.582 227.954 47.1917H225.212V45.9019H227.157C227.157 45.9433 227.019 45.6849 226.742 45.1265C226.463 44.568 226.281 44.1619 226.188 43.9059C226.11 43.6657 226.043 43.3865 225.978 43.0728C225.921 42.7522 225.893 42.4107 225.893 42.0507C225.893 40.7608 226.421 39.6021 227.471 38.5846C228.517 37.5671 230.021 37.0546 231.983 37.0546C233.827 37.0546 235.218 37.5601 236.164 38.566C237.108 39.5766 237.599 41.0029 237.627 42.8446H235.329C235.329 41.5962 235.038 40.6479 234.457 40.0017C233.873 39.3531 232.987 39.0278 231.796 39.0278C230.642 39.0278 229.763 39.3303 229.17 39.9394C228.575 40.5485 228.274 41.2849 228.274 42.1524C228.274 42.5817 228.369 43.0245 228.556 43.477C228.738 43.9314 229.133 44.744 229.74 45.9093H233.806V47.2014H230.296C230.379 47.58 230.439 47.8774 230.473 48.0944C230.513 48.309 230.526 48.5306 230.526 48.7612C230.526 49.5872 230.28 50.4064 229.788 51.212C229.287 52.0195 228.512 52.8158 227.453 53.6122C228.023 53.3236 228.584 53.0904 229.138 52.9245C229.691 52.7559 230.234 52.6731 230.76 52.6731C231.355 52.6731 232.147 52.8162 233.121 53.1117C234.104 53.4049 234.741 53.5503 235.05 53.5503C235.437 53.5503 235.79 53.4741 236.118 53.3263C236.312 53.2339 236.619 53.0448 237.023 52.7563L238.048 54.434C237.592 54.7937 237.179 55.0683 236.812 55.2508Z" fill="#FFFBD7"/>
<path d="M264.369 0C256.836 0 250.737 6.10369 250.737 13.6337C250.737 21.1637 256.841 27.2674 264.369 27.2674C271.896 27.2674 278 21.1614 278 13.6337C278 6.10369 271.896 0 264.369 0ZM269.748 20.8478C268.541 22.4056 266.91 23.183 264.858 23.183C263.09 23.183 261.609 22.546 260.399 21.2678C259.266 20.0654 258.533 18.39 258.216 16.2416H255.106L255.623 14.49H258.043C258.025 14.1531 258.016 13.807 258.016 13.4515C258.016 13.1468 258.025 12.8424 258.043 12.5377H255.108L255.627 10.7837H258.242C258.526 9.27929 259.049 7.97517 259.811 6.87216C261.101 5.00996 262.871 4.07983 265.137 4.07983C267.066 4.07983 268.555 4.68432 269.621 5.896C270.692 7.10537 271.28 8.48065 271.4 10.0199H269.386C269.162 8.85232 268.71 7.92451 268.024 7.24151C267.344 6.55851 266.39 6.21701 265.163 6.21701C263.658 6.21701 262.44 6.84702 261.521 8.10705C261.009 8.79933 260.647 9.69234 260.42 10.7865H267.306L266.787 12.5404H260.171C260.141 12.9604 260.132 13.4059 260.132 13.8743C260.132 14.0866 260.136 14.2943 260.141 14.4927H267.304L266.785 16.2443H260.326C260.524 17.3241 260.875 18.2589 261.378 19.0482C262.204 20.3635 263.448 21.0237 265.103 21.0237C266.626 21.0237 267.789 20.3291 268.587 18.9376C269.012 18.2039 269.317 17.2413 269.524 16.0482H271.539C271.354 17.9537 270.761 19.5552 269.748 20.8478Z" fill="#FFFBD7"/>
<path d="M264.369 32.7346C256.836 32.7346 250.737 38.8406 250.737 46.366C250.737 53.8984 256.841 59.9997 264.369 59.9997C271.896 59.9997 278 53.896 278 46.366C278 38.8383 271.896 32.7346 264.369 32.7346ZM270.999 42.9622V44.7506H267.634L265.931 47.6442H270.564V49.4325H265.612V55.684H263.101V49.4325H258.288V47.6442H262.786L261.082 44.7506H257.662V42.9622H260.032L256.552 37.0407H259.504L264.357 46.0059L269.229 37.0407H272.187L268.691 42.9622H270.999Z" fill="#FFFBD7"/>
</svg>
