<svg width="279" height="153" viewBox="0 0 279 153" fill="none" xmlns="http://www.w3.org/2000/svg">
<g clip-path="url(#clip0_39_421)">
<path d="M234.816 15.0229C234.401 14.7251 233.694 14.4389 232.707 14.1689V20.4088C234.059 20.3442 234.991 19.8503 235.508 18.9248C235.776 18.4495 235.91 17.9003 235.91 17.2749C235.91 16.2899 235.547 15.5377 234.816 15.0229Z" fill="#FFFBD7"/>
<path d="M229.351 7.10297C228.908 7.69586 228.689 8.31698 228.689 8.96518C228.689 9.74757 228.947 10.359 229.471 10.8022C230 11.2431 230.699 11.5545 231.581 11.7277V6.15234C230.54 6.19605 229.797 6.50777 229.351 7.10297Z" fill="#FFFBD7"/>
<path d="M232.132 0C224.6 0 218.5 6.10369 218.5 13.6337C218.5 21.1637 224.604 27.2674 232.132 27.2674C239.66 27.2674 245.763 21.1637 245.763 13.6337C245.763 6.10369 239.664 0 232.132 0ZM235.99 21.1823C235.234 21.6715 234.14 21.9968 232.707 22.1538V24.4546H231.58V22.1538C229.284 22.0038 227.719 21.1893 226.898 19.7099C226.448 18.909 226.227 17.8315 226.227 16.4721H228.32C228.382 17.5565 228.558 18.3459 228.837 18.8444C229.333 19.7374 230.242 20.2382 231.581 20.3488V13.8855C229.869 13.5602 228.599 13.0199 227.782 12.2584C226.966 11.4992 226.557 10.4469 226.557 9.10371C226.557 7.9013 226.998 6.81917 227.877 5.85462C228.761 4.89007 229.996 4.40083 231.581 4.38458V2.80626H232.707V4.35945C234.286 4.47006 235.488 4.93184 236.326 5.74865C237.17 6.56547 237.614 7.64334 237.65 8.9842H235.578C235.523 8.38435 235.361 7.86727 235.091 7.43101C234.59 6.63238 233.797 6.21236 232.707 6.17562V11.9517C234.544 12.4642 235.786 12.9465 236.443 13.3962C237.512 14.1392 238.043 15.2403 238.043 16.6941C238.049 18.7984 237.361 20.2939 235.99 21.1823Z" fill="#FFFBD7"/>
<path d="M232.132 32.7346C224.597 32.7346 218.5 38.8406 218.5 46.366C218.5 53.896 224.604 59.9997 232.132 59.9997C239.66 59.9997 245.763 53.896 245.763 46.366C245.764 38.8383 239.664 32.7346 232.132 32.7346ZM237.313 55.2508C236.713 55.5393 236.074 55.6847 235.393 55.6847C234.897 55.6847 234.064 55.4956 232.891 55.1124C231.724 54.7337 230.803 54.5446 230.122 54.5446C229.497 54.5446 228.899 54.6506 228.341 54.8675C228.009 55.0014 227.589 55.223 227.065 55.5366L225.839 53.7757C226.767 53.1225 227.522 52.3981 228.097 51.6111C228.667 50.8218 228.95 49.9636 228.95 49.0381C228.95 48.7728 228.9 48.4657 228.791 48.1103C228.722 47.884 228.614 47.582 228.454 47.1917H225.713V45.9019H227.658C227.658 45.9433 227.519 45.6849 227.243 45.1265C226.963 44.568 226.781 44.1619 226.689 43.9059C226.61 43.6657 226.543 43.3865 226.479 43.0728C226.421 42.7522 226.393 42.4107 226.393 42.0507C226.393 40.7608 226.922 39.6021 227.972 38.5846C229.017 37.5671 230.521 37.0546 232.483 37.0546C234.327 37.0546 235.719 37.5601 236.665 38.566C237.608 39.5766 238.1 41.0029 238.128 42.8446H235.829C235.829 41.5962 235.538 40.6479 234.957 40.0017C234.373 39.3531 233.487 39.0278 232.296 39.0278C231.143 39.0278 230.263 39.3303 229.67 39.9394C229.075 40.5485 228.775 41.2849 228.775 42.1524C228.775 42.5817 228.87 43.0245 229.056 43.477C229.239 43.9314 229.633 44.744 230.24 45.9093H234.307V47.2014H230.796C230.88 47.58 230.94 47.8774 230.974 48.0944C231.013 48.309 231.027 48.5306 231.027 48.7612C231.027 49.5872 230.78 50.4064 230.289 51.212C229.788 52.0195 229.012 52.8158 227.953 53.6122C228.523 53.3236 229.084 53.0904 229.638 52.9245C230.192 52.7559 230.734 52.6731 231.261 52.6731C231.856 52.6731 232.647 52.8162 233.621 53.1117C234.604 53.4049 235.241 53.5503 235.55 53.5503C235.938 53.5503 236.291 53.4741 236.619 53.3263C236.813 53.2339 237.12 53.0448 237.524 52.7563L238.548 54.434C238.093 54.7937 237.68 55.0683 237.313 55.2508Z" fill="#FFFBD7"/>
<path d="M264.869 0C257.336 0 251.237 6.10369 251.237 13.6337C251.237 21.1637 257.341 27.2674 264.869 27.2674C272.396 27.2674 278.5 21.1614 278.5 13.6337C278.5 6.10369 272.396 0 264.869 0ZM270.248 20.8478C269.041 22.4056 267.41 23.183 265.358 23.183C263.59 23.183 262.109 22.546 260.899 21.2678C259.766 20.0654 259.033 18.39 258.716 16.2416H255.606L256.123 14.49H258.543C258.525 14.1531 258.516 13.807 258.516 13.4515C258.516 13.1468 258.525 12.8424 258.543 12.5377H255.608L256.127 10.7837H258.742C259.026 9.27929 259.549 7.97517 260.311 6.87216C261.601 5.00996 263.371 4.07983 265.637 4.07983C267.566 4.07983 269.055 4.68432 270.121 5.896C271.192 7.10537 271.78 8.48065 271.9 10.0199H269.886C269.662 8.85232 269.21 7.92451 268.524 7.24151C267.844 6.55851 266.89 6.21701 265.663 6.21701C264.158 6.21701 262.94 6.84702 262.021 8.10705C261.509 8.79933 261.147 9.69234 260.92 10.7865H267.806L267.287 12.5404H260.671C260.641 12.9604 260.632 13.4059 260.632 13.8743C260.632 14.0866 260.636 14.2943 260.641 14.4927H267.804L267.285 16.2443H260.826C261.024 17.3241 261.375 18.2589 261.878 19.0482C262.704 20.3635 263.948 21.0237 265.603 21.0237C267.126 21.0237 268.289 20.3291 269.087 18.9376C269.512 18.2039 269.817 17.2413 270.024 16.0482H272.039C271.854 17.9537 271.261 19.5552 270.248 20.8478Z" fill="#FFFBD7"/>
<path d="M264.869 32.7346C257.336 32.7346 251.237 38.8406 251.237 46.366C251.237 53.8984 257.341 59.9997 264.869 59.9997C272.396 59.9997 278.5 53.896 278.5 46.366C278.5 38.8383 272.396 32.7346 264.869 32.7346ZM271.499 42.9622V44.7506H268.134L266.431 47.6442H271.064V49.4325H266.112V55.684H263.601V49.4325H258.788V47.6442H263.286L261.582 44.7506H258.162V42.9622H260.532L257.052 37.0407H260.004L264.857 46.0059L269.729 37.0407H272.687L269.191 42.9622H271.499Z" fill="#FFFBD7"/>
</g>
<defs>
<clipPath id="clip0_39_421">
<rect width="278" height="153" fill="white" transform="translate(0.5)"/>
</clipPath>
</defs>
</svg>
