<svg width="614" height="112" viewBox="0 0 614 112" fill="none" xmlns="http://www.w3.org/2000/svg">
<path d="M22 88C19.0667 88 16.4667 87.2 14.2 85.6C11.9333 84 10.1667 81.8333 8.9 79.1C7.63333 76.3 7 73.1 7 69.5V14.9C7 13.4333 7.46667 12.2333 8.4 11.3C9.33333 10.3667 10.5333 9.9 12 9.9C13.4667 9.9 14.6667 10.3667 15.6 11.3C16.5333 12.2333 17 13.4333 17 14.9V69.5C17 71.9667 17.4667 74 18.4 75.6C19.3333 77.2 20.5333 78 22 78H24.5C25.8333 78 26.9 78.4667 27.7 79.4C28.5667 80.3333 29 81.5333 29 83C29 84.4667 28.3667 85.6667 27.1 86.6C25.8333 87.5333 24.2 88 22.2 88H22ZM66.6531 88.4C61.1198 88.4 56.1865 87.2333 51.8531 84.9C47.5865 82.5 44.2198 79.2333 41.7531 75.1C39.3531 70.9 38.1531 66.1 38.1531 60.7C38.1531 55.2333 39.2865 50.4333 41.5531 46.3C43.8865 42.1 47.0865 38.8333 51.1531 36.5C55.2198 34.1 59.8865 32.9 65.1531 32.9C70.3531 32.9 74.8198 34.0667 78.5531 36.4C82.2865 38.6667 85.1198 41.8333 87.0531 45.9C89.0531 49.9 90.0531 54.5333 90.0531 59.8C90.0531 61.0667 89.6198 62.1333 88.7531 63C87.8865 63.8 86.7865 64.2 85.4531 64.2H45.1531V56.2H85.1531L81.0531 59C80.9865 55.6667 80.3198 52.7 79.0531 50.1C77.7865 47.4333 75.9865 45.3333 73.6531 43.8C71.3198 42.2667 68.4865 41.5 65.1531 41.5C61.3531 41.5 58.0865 42.3333 55.3531 44C52.6865 45.6667 50.6531 47.9667 49.2531 50.9C47.8531 53.7667 47.1531 57.0333 47.1531 60.7C47.1531 64.3667 47.9865 67.6333 49.6531 70.5C51.3198 73.3667 53.6198 75.6333 56.5531 77.3C59.4865 78.9667 62.8531 79.8 66.6531 79.8C68.7198 79.8 70.8198 79.4333 72.9531 78.7C75.1531 77.9 76.9198 77 78.2531 76C79.2531 75.2667 80.3198 74.9 81.4531 74.9C82.6531 74.8333 83.6865 75.1667 84.5531 75.9C85.6865 76.9 86.2865 78 86.3531 79.2C86.4198 80.4 85.8865 81.4333 84.7531 82.3C82.4865 84.1 79.6531 85.5667 76.2531 86.7C72.9198 87.8333 69.7198 88.4 66.6531 88.4ZM154.263 88.1C152.796 88.1 151.563 87.6333 150.563 86.7C149.629 85.7 149.163 84.4667 149.163 83V58.4C149.163 54.6 148.463 51.5 147.063 49.1C145.663 46.7 143.763 44.9333 141.363 43.8C139.029 42.6 136.329 42 133.263 42C130.463 42 127.929 42.5667 125.663 43.7C123.396 44.8333 121.596 46.3667 120.263 48.3C118.929 50.1667 118.263 52.3333 118.263 54.8H111.963C111.963 50.6 112.963 46.8667 114.963 43.6C117.029 40.2667 119.829 37.6333 123.363 35.7C126.896 33.7667 130.863 32.8 135.263 32.8C139.863 32.8 143.963 33.8 147.563 35.8C151.229 37.7333 154.096 40.6 156.163 44.4C158.296 48.2 159.363 52.8667 159.363 58.4V83C159.363 84.4667 158.863 85.7 157.862 86.7C156.929 87.6333 155.729 88.1 154.263 88.1ZM113.163 88.1C111.696 88.1 110.463 87.6333 109.463 86.7C108.529 85.7 108.063 84.4667 108.063 83V38.4C108.063 36.8667 108.529 35.6333 109.463 34.7C110.463 33.7667 111.696 33.3 113.163 33.3C114.696 33.3 115.929 33.7667 116.863 34.7C117.796 35.6333 118.263 36.8667 118.263 38.4V83C118.263 84.4667 117.796 85.7 116.863 86.7C115.929 87.6333 114.696 88.1 113.163 88.1ZM206.027 88.4C200.827 88.4 196.127 87.2 191.927 84.8C187.793 82.3333 184.493 79 182.027 74.8C179.627 70.6 178.427 65.8667 178.427 60.6C178.427 55.3333 179.527 50.6333 181.727 46.5C183.993 42.3 187.06 39 190.927 36.6C194.793 34.1333 199.16 32.9 204.027 32.9C207.96 32.9 211.593 33.7333 214.927 35.4C218.26 37 221.06 39.2 223.327 42V15C223.327 13.4667 223.793 12.2333 224.727 11.3C225.727 10.3667 226.96 9.9 228.427 9.9C229.96 9.9 231.193 10.3667 232.127 11.3C233.06 12.2333 233.527 13.4667 233.527 15V60.6C233.527 65.8667 232.293 70.6 229.827 74.8C227.427 79 224.16 82.3333 220.027 84.8C215.893 87.2 211.227 88.4 206.027 88.4ZM206.027 79.4C209.427 79.4 212.46 78.6 215.127 77C217.793 75.3333 219.893 73.0667 221.427 70.2C222.96 67.3333 223.727 64.1333 223.727 60.6C223.727 57 222.96 53.8 221.427 51C219.893 48.2 217.793 46 215.127 44.4C212.46 42.7333 209.427 41.9 206.027 41.9C202.693 41.9 199.66 42.7333 196.927 44.4C194.26 46 192.127 48.2 190.527 51C188.993 53.8 188.227 57 188.227 60.6C188.227 64.1333 188.993 67.3333 190.527 70.2C192.127 73.0667 194.26 75.3333 196.927 77C199.66 78.6 202.693 79.4 206.027 79.4ZM261.439 53.8C261.439 49.8 262.406 46.2333 264.339 43.1C266.339 39.9 269.006 37.3667 272.339 35.5C275.672 33.6333 279.339 32.7 283.339 32.7C287.339 32.7 290.306 33.3667 292.239 34.7C294.239 35.9667 295.006 37.5 294.539 39.3C294.339 40.2333 293.939 40.9667 293.339 41.5C292.806 41.9667 292.172 42.2667 291.439 42.4C290.706 42.5333 289.906 42.5 289.039 42.3C284.772 41.4333 280.939 41.3667 277.539 42.1C274.139 42.8333 271.439 44.2 269.439 46.2C267.506 48.2 266.539 50.7333 266.539 53.8H261.439ZM261.539 88C259.939 88 258.706 87.6 257.839 86.8C256.972 85.9333 256.539 84.6667 256.539 83V38.3C256.539 36.7 256.972 35.4667 257.839 34.6C258.706 33.7333 259.939 33.3 261.539 33.3C263.206 33.3 264.439 33.7333 265.239 34.6C266.106 35.4 266.539 36.6333 266.539 38.3V83C266.539 84.6 266.106 85.8333 265.239 86.7C264.439 87.5667 263.206 88 261.539 88ZM316.272 88C314.805 88 313.572 87.5333 312.572 86.6C311.639 85.6 311.172 84.3667 311.172 82.9V38.4C311.172 36.8667 311.639 35.6333 312.572 34.7C313.572 33.7667 314.805 33.3 316.272 33.3C317.805 33.3 319.039 33.7667 319.972 34.7C320.905 35.6333 321.372 36.8667 321.372 38.4V82.9C321.372 84.3667 320.905 85.6 319.972 86.6C319.039 87.5333 317.805 88 316.272 88ZM316.272 24.4C314.472 24.4 312.905 23.7667 311.572 22.5C310.305 21.1667 309.672 19.6 309.672 17.8C309.672 16 310.305 14.4667 311.572 13.2C312.905 11.8667 314.472 11.2 316.272 11.2C318.072 11.2 319.605 11.8667 320.872 13.2C322.205 14.4667 322.872 16 322.872 17.8C322.872 19.6 322.205 21.1667 320.872 22.5C319.605 23.7667 318.072 24.4 316.272 24.4ZM368.148 88.4C363.148 88.4 358.714 87.2333 354.848 84.9C351.048 82.5 348.048 79.2333 345.848 75.1C343.648 70.9 342.548 66.1 342.548 60.7C342.548 55.2333 343.714 50.4333 346.048 46.3C348.448 42.1 351.714 38.8333 355.848 36.5C359.981 34.1 364.748 32.9 370.148 32.9C375.481 32.9 380.214 34.1 384.348 36.5C388.481 38.8333 391.714 42.1 394.048 46.3C396.448 50.4333 397.648 55.2333 397.648 60.7H391.748C391.748 66.1 390.714 70.9 388.648 75.1C386.648 79.2333 383.881 82.5 380.348 84.9C376.814 87.2333 372.748 88.4 368.148 88.4ZM369.948 110.7C365.214 110.7 360.781 109.767 356.648 107.9C352.514 106.033 349.014 103.3 346.148 99.7C345.281 98.5667 344.948 97.4 345.148 96.2C345.414 95 346.081 94.0333 347.148 93.3C348.348 92.5 349.581 92.2333 350.848 92.5C352.181 92.7667 353.248 93.4333 354.048 94.5C355.848 96.7667 358.114 98.5333 360.848 99.8C363.581 101.067 366.681 101.7 370.148 101.7C373.348 101.7 376.281 100.933 378.948 99.4C381.681 97.8667 383.848 95.6 385.448 92.6C387.048 89.6 387.848 85.9333 387.848 81.6V67.4L391.148 58.6L397.648 60.7V82.3C397.648 87.5667 396.481 92.3333 394.148 96.6C391.814 100.933 388.548 104.367 384.348 106.9C380.214 109.433 375.414 110.7 369.948 110.7ZM370.148 79.4C373.614 79.4 376.681 78.6 379.348 77C382.014 75.4 384.081 73.2 385.548 70.4C387.081 67.6 387.848 64.3667 387.848 60.7C387.848 57.0333 387.081 53.8 385.548 51C384.081 48.1333 382.014 45.9 379.348 44.3C376.681 42.7 373.614 41.9 370.148 41.9C366.681 41.9 363.614 42.7 360.948 44.3C358.281 45.9 356.181 48.1333 354.648 51C353.114 53.8 352.348 57.0333 352.348 60.7C352.348 64.3667 353.114 67.6 354.648 70.4C356.181 73.2 358.281 75.4 360.948 77C363.614 78.6 366.681 79.4 370.148 79.4ZM422.928 68.1C421.461 68.1 420.228 67.6333 419.228 66.7C418.295 65.7 417.828 64.4667 417.828 63V15C417.828 13.4667 418.295 12.2333 419.228 11.3C420.228 10.3667 421.461 9.9 422.928 9.9C424.461 9.9 425.695 10.3667 426.628 11.3C427.561 12.2333 428.028 13.4667 428.028 15V63C428.028 64.4667 427.561 65.7 426.628 66.7C425.695 67.6333 424.461 68.1 422.928 68.1ZM464.028 88.1C462.561 88.1 461.328 87.6333 460.328 86.7C459.395 85.7 458.928 84.4667 458.928 83V58.4C458.928 54.6 458.228 51.5 456.828 49.1C455.428 46.7 453.528 44.9333 451.128 43.8C448.795 42.6 446.095 42 443.028 42C440.228 42 437.695 42.5667 435.428 43.7C433.161 44.8333 431.361 46.3667 430.028 48.3C428.695 50.1667 428.028 52.3333 428.028 54.8H421.728C421.728 50.6 422.728 46.8667 424.728 43.6C426.795 40.2667 429.595 37.6333 433.128 35.7C436.661 33.7667 440.628 32.8 445.028 32.8C449.628 32.8 453.728 33.8 457.328 35.8C460.995 37.7333 463.861 40.6 465.928 44.4C468.061 48.2 469.128 52.8667 469.128 58.4V83C469.128 84.4667 468.628 85.7 467.628 86.7C466.695 87.6333 465.495 88.1 464.028 88.1ZM422.928 88.1C421.461 88.1 420.228 87.6333 419.228 86.7C418.295 85.7 417.828 84.4667 417.828 83V38.4C417.828 36.8667 418.295 35.6333 419.228 34.7C420.228 33.7667 421.461 33.3 422.928 33.3C424.461 33.3 425.695 33.7667 426.628 34.7C427.561 35.6333 428.028 36.8667 428.028 38.4V83C428.028 84.4667 427.561 85.7 426.628 86.7C425.695 87.6333 424.461 88.1 422.928 88.1ZM510.99 88C507.657 88 504.657 87.1667 501.99 85.5C499.323 83.7667 497.223 81.4333 495.69 78.5C494.157 75.5667 493.39 72.2667 493.39 68.6V20.9C493.39 19.4333 493.857 18.2333 494.79 17.3C495.723 16.3667 496.923 15.9 498.39 15.9C499.857 15.9 501.057 16.3667 501.99 17.3C502.923 18.2333 503.39 19.4333 503.39 20.9V68.6C503.39 71.2667 504.123 73.5 505.59 75.3C507.057 77.1 508.857 78 510.99 78H514.39C515.59 78 516.59 78.4667 517.39 79.4C518.257 80.3333 518.69 81.5333 518.69 83C518.69 84.4667 518.123 85.6667 516.99 86.6C515.923 87.5333 514.523 88 512.79 88H510.99ZM488.79 43.9C487.39 43.9 486.257 43.5 485.39 42.7C484.523 41.9 484.09 40.9 484.09 39.7C484.09 38.3667 484.523 37.3 485.39 36.5C486.257 35.7 487.39 35.3 488.79 35.3H511.89C513.29 35.3 514.423 35.7 515.29 36.5C516.157 37.3 516.59 38.3667 516.59 39.7C516.59 40.9 516.157 41.9 515.29 42.7C514.423 43.5 513.29 43.9 511.89 43.9H488.79Z" fill="#013552"/>
<path d="M589.125 47.2461L571.625 64.7461L562.875 55.9961M541 21H611V82.25C611 87.0822 607.083 91 602.25 91H549.75C544.918 91 541 87.0822 541 82.25V21Z" stroke="#013552" stroke-width="6" stroke-linecap="round" stroke-linejoin="round"/>
</svg>
