<svg width="278" height="123" viewBox="0 0 278 123" fill="none" xmlns="http://www.w3.org/2000/svg">
<path d="M228.189 31.5964L229.281 33.0489L241.806 27.2581L253.392 44.3731L275.774 33.045C277.948 31.9449 278.649 29.5098 277.343 27.6057L266.292 11.5132L264.319 12.4521C263.766 12.7143 263.32 13.3493 263.32 13.8697C263.32 14.1464 263.32 14.4707 263.32 14.8144C263.32 15.8572 261.545 17.5739 259.355 18.6468L251.646 22.4247C249.455 23.4986 247.681 23.4714 247.681 22.3636C247.681 22.3636 247.681 21.915 247.681 21.3606C247.681 20.8062 247.233 20.5693 246.683 20.8324L244.489 21.8752V20.8033C244.489 20.245 244.037 19.5896 243.479 19.34L240.89 18.1807C240.331 17.9312 239.42 17.9195 238.854 18.1555L234.294 20.0527C233.729 20.2887 233.268 20.9324 233.268 21.4907V27.2077C233.268 27.2077 231.886 27.864 230.181 28.6757C228.477 29.4855 227.585 30.7924 228.189 31.5964Z" fill="#fff"/>
<path d="M254.167 9.86558C253.154 9.61993 252.73 9.42477 252.701 9.09659C252.675 8.80918 252.889 8.49459 253.633 8.44022C254.459 8.38002 255.018 8.57713 255.316 8.6781L255.554 7.49451C255.138 7.35955 254.609 7.24304 253.85 7.27702L253.767 6.37598L252.645 6.45657L252.733 7.43043C251.526 7.7256 250.881 8.48391 250.965 9.39661C251.055 10.3909 251.939 10.8433 253.2 11.122C254.082 11.3162 254.472 11.5346 254.508 11.924C254.543 12.325 254.118 12.594 253.454 12.6425C252.709 12.6969 252.013 12.5308 251.511 12.3308L251.276 13.5542C251.732 13.7387 252.494 13.8785 253.264 13.8523L253.354 14.8262L254.487 14.7446L254.391 13.6902C255.691 13.3989 256.329 12.5677 256.247 11.655C256.162 10.721 255.571 10.1967 254.167 9.86558Z" fill="#fff"/>
<path d="M252.365 0.0957575C252.365 0.0957575 243.532 0.356944 243.676 11.4112C243.793 20.4673 252.316 19.6459 252.316 19.6459C252.316 19.6459 261.472 19.609 260.703 6.4555C260.251 -1.28688 252.365 0.0957575 252.365 0.0957575ZM246.059 10.9034H246.056C245.901 10.9034 245.775 10.7927 245.774 10.6539C245.662 2.06096 252.616 1.75511 252.685 1.75317C252.86 1.74055 252.971 1.85804 252.977 1.99688C252.983 2.1367 252.861 2.25321 252.705 2.25904C252.44 2.26778 246.235 2.56392 246.34 10.6481C246.34 10.7879 246.215 10.9025 246.059 10.9034ZM252.641 17.2535C252.641 17.2535 247.964 17.4739 248.055 11.3161C248.158 4.48737 253.849 3.60769 253.849 3.60769C253.849 3.60769 258.957 2.72704 258.85 7.99737C258.651 17.9836 252.641 17.2535 252.641 17.2535Z" fill="#fff"/>
<path d="M246.719 59.1694C248.884 60.2841 252.386 60.2753 254.543 59.149L273.325 49.3376C275.482 48.2112 277.231 45.4868 277.231 43.2516V35.6093L252.635 47.985L240.953 30.5186L231.423 34.782V47.2413C231.423 49.4754 233.177 52.1902 235.341 53.3058L236.358 53.8302V42.973L242.688 46.5004V57.0906L246.719 59.1694Z" fill="#fff"/>
</svg>
