<svg width="279" height="123" viewBox="0 0 279 123" fill="none" xmlns="http://www.w3.org/2000/svg">
<g clip-path="url(#clip0_39_433)">
<path d="M228.689 31.5964L229.781 33.0489L242.306 27.2581L253.892 44.3731L276.274 33.045C278.448 31.9449 279.149 29.5098 277.843 27.6057L266.792 11.5132L264.819 12.4521C264.266 12.7143 263.82 13.3493 263.82 13.8697C263.82 14.1464 263.82 14.4707 263.82 14.8144C263.82 15.8572 262.045 17.5739 259.855 18.6468L252.146 22.4247C249.955 23.4986 248.181 23.4714 248.181 22.3636C248.181 22.3636 248.181 21.915 248.181 21.3606C248.181 20.8062 247.733 20.5693 247.183 20.8324L244.989 21.8752V20.8033C244.989 20.245 244.537 19.5896 243.979 19.34L241.39 18.1807C240.831 17.9312 239.92 17.9195 239.354 18.1555L234.794 20.0527C234.229 20.2887 233.768 20.9324 233.768 21.4907V27.2077C233.768 27.2077 232.386 27.864 230.681 28.6757C228.977 29.4855 228.085 30.7924 228.689 31.5964Z" fill="#fff"/>
<path d="M254.667 9.86558C253.653 9.61993 253.23 9.42477 253.201 9.09659C253.175 8.80918 253.388 8.49459 254.133 8.44022C254.959 8.38002 255.517 8.57713 255.816 8.6781L256.054 7.49451C255.638 7.35955 255.108 7.24304 254.35 7.27702L254.266 6.37598L253.144 6.45657L253.232 7.43043C252.025 7.7256 251.381 8.48391 251.464 9.39661C251.554 10.3909 252.439 10.8433 253.7 11.122C254.582 11.3162 254.972 11.5346 255.007 11.924C255.042 12.325 254.618 12.594 253.954 12.6425C253.208 12.6969 252.513 12.5308 252.01 12.3308L251.776 13.5542C252.231 13.7387 252.993 13.8785 253.764 13.8523L253.854 14.8262L254.987 14.7446L254.89 13.6902C256.19 13.3989 256.828 12.5677 256.747 11.655C256.661 10.721 256.071 10.1967 254.667 9.86558Z" fill="#fff"/>
<path d="M252.865 0.0957575C252.865 0.0957575 244.031 0.356944 244.176 11.4112C244.293 20.4673 252.816 19.6459 252.816 19.6459C252.816 19.6459 261.972 19.609 261.202 6.4555C260.751 -1.28688 252.865 0.0957575 252.865 0.0957575ZM246.559 10.9034H246.555C246.4 10.9034 246.274 10.7927 246.273 10.6539C246.161 2.06096 253.115 1.75511 253.185 1.75317C253.36 1.74055 253.47 1.85804 253.477 1.99688C253.482 2.1367 253.361 2.25321 253.204 2.25904C252.94 2.26778 246.734 2.56392 246.84 10.6481C246.84 10.7879 246.715 10.9025 246.559 10.9034ZM253.14 17.2535C253.14 17.2535 248.463 17.4739 248.554 11.3161C248.657 4.48737 254.348 3.60769 254.348 3.60769C254.348 3.60769 259.456 2.72704 259.35 7.99737C259.15 17.9836 253.14 17.2535 253.14 17.2535Z" fill="#fff"/>
<path d="M247.219 59.1694C249.384 60.2841 252.885 60.2753 255.043 59.149L273.824 49.3376C275.981 48.2112 277.731 45.4868 277.731 43.2516V35.6093L253.135 47.985L241.453 30.5186L231.923 34.782V47.2413C231.923 49.4754 233.677 52.1902 235.84 53.3058L236.857 53.8302V42.973L243.187 46.5004V57.0906L247.219 59.1694Z" fill="#fff"/>
</g>
<defs>
<clipPath id="clip0_39_433">
<rect width="278" height="123" fill="white" transform="translate(0.5)"/>
</clipPath>
</defs>
</svg>
