<svg width="60" height="60" viewBox="0 0 60 60" fill="none" xmlns="http://www.w3.org/2000/svg">
<g clip-path="url(#clip0_68_6)">
<path d="M55 42.505C54.9989 45.9239 53.8303 49.2399 51.6876 51.9041C49.5449 54.5682 46.5566 56.4208 43.2175 57.155L41.6225 52.37C43.0831 52.1294 44.4721 51.5679 45.6895 50.7257C46.9069 49.8836 47.9223 48.7819 48.6625 47.5H42.5C41.1739 47.5 39.9021 46.9732 38.9645 46.0355C38.0268 45.0979 37.5 43.8261 37.5 42.5V32.5C37.5 31.1739 38.0268 29.9021 38.9645 28.9645C39.9021 28.0268 41.1739 27.5 42.5 27.5H49.845C49.2349 22.6672 46.8823 18.2232 43.2286 15.0017C39.5748 11.7802 34.8711 10.0027 30 10.0027C25.1289 10.0027 20.4252 11.7802 16.7714 15.0017C13.1177 18.2232 10.7651 22.6672 10.155 27.5H17.5C18.8261 27.5 20.0979 28.0268 21.0355 28.9645C21.9732 29.9021 22.5 31.1739 22.5 32.5V42.5C22.5 43.8261 21.9732 45.0979 21.0355 46.0355C20.0979 46.9732 18.8261 47.5 17.5 47.5H10C8.67392 47.5 7.40215 46.9732 6.46447 46.0355C5.52678 45.0979 5 43.8261 5 42.5V30C5 16.1925 16.1925 5 30 5C43.8075 5 55 16.1925 55 30V42.505ZM50 42.5V32.5H42.5V42.5H50ZM10 32.5V42.5H17.5V32.5H10Z" fill="#FFFBD7"/>
</g>
<defs>
<clipPath id="clip0_68_6">
<rect width="60" height="60" fill="white"/>
</clipPath>
</defs>
</svg>
