<svg width="278" height="63" viewBox="0 0 278 63" fill="none" xmlns="http://www.w3.org/2000/svg">
<g clip-path="url(#clip0_22_483)">
<path fill-rule="evenodd" clip-rule="evenodd" d="M270.943 14.1177H225.061V8.82353C225.061 7.83528 225.837 7.05881 226.825 7.05881H232.119V8.82353C232.119 9.81175 232.896 10.5883 233.884 10.5883C234.872 10.5883 235.649 9.81175 235.649 8.82353V7.05881H260.355V8.82353C260.355 9.81175 261.131 10.5883 262.119 10.5883C263.108 10.5883 263.884 9.81175 263.884 8.82353V7.05881H269.178C270.167 7.05881 270.943 7.83528 270.943 8.82353V14.1177ZM256.014 40.6588C256.014 44.8588 252.731 47.8941 247.931 47.8941C243.908 47.8941 241.014 46.2353 239.072 43.8706L241.896 41.2588C243.555 43.2 245.425 44.2588 248.002 44.2588C250.261 44.2588 251.99 42.9177 251.99 40.8353V40.7647C251.99 38.5058 249.908 37.2353 246.661 37.2353H244.79L244.119 34.7294L250.367 28.2H240.378V24.7059H255.661V27.7059L249.202 34.2C252.696 34.6235 256.014 36.3882 256.014 40.5882V40.6588ZM269.178 3.52941H263.884V1.76472C263.884 0.776469 263.108 0 262.119 0C261.131 0 260.355 0.776469 260.355 1.76472V3.52941H235.649V1.76472C235.649 0.776469 234.872 0 233.884 0C232.896 0 232.119 0.776469 232.119 1.76472V3.52941H226.825C223.896 3.52941 221.531 5.89412 221.531 8.82353V60H274.472V8.82353C274.472 5.89412 272.108 3.52941 269.178 3.52941Z" fill="#FFFBD7"/>
</g>
<defs>
<clipPath id="clip0_22_483">
<rect width="60" height="60" fill="white" transform="translate(218)"/>
</clipPath>
</defs>
</svg>
