<svg width="279" height="63" viewBox="0 0 279 63" fill="none" xmlns="http://www.w3.org/2000/svg">
<g clip-path="url(#clip0_39_452)">
<g clip-path="url(#clip1_39_452)">
<path d="M218.5 48.78C218.5 49.82 218.86 50.7 219.58 51.42C220.3 52.14 221.2 52.5 222.28 52.5H274.78C275.78 52.5 276.66 52.14 277.42 51.42C278.18 50.7 278.54 49.82 278.5 48.78V18.78H218.5V48.78ZM218.5 15H278.5V11.28C278.5 10.24 278.14 9.36 277.42 8.64C276.7 7.92 275.82 7.54 274.78 7.5H222.28C221.24 7.5 220.34 7.88 219.58 8.64C218.82 9.4 218.46 10.28 218.5 11.28V15ZM237.28 35.64C237.28 33.04 238.18 30.84 239.98 29.04C241.78 27.24 244 26.32 246.64 26.28C248.28 26.28 249.84 26.72 251.32 27.6C249.44 30 248.5 32.68 248.5 35.64C248.5 38.6 249.44 41.28 251.32 43.68C249.84 44.56 248.28 45 246.64 45C244.04 45 241.82 44.1 239.98 42.3C238.14 40.5 237.24 38.28 237.28 35.64ZM252.28 35.64C252.28 33.04 253.18 30.84 254.98 29.04C256.78 27.24 259 26.32 261.64 26.28C264.28 26.24 266.48 27.16 268.24 29.04C270 30.92 270.92 33.12 271 35.64C271.08 38.16 270.16 40.38 268.24 42.3C266.32 44.22 264.12 45.12 261.64 45C259.16 44.88 256.94 43.98 254.98 42.3C253.02 40.62 252.12 38.4 252.28 35.64Z" fill="#fff"/>
</g>
</g>
<defs>
<clipPath id="clip0_39_452">
<rect width="278" height="63" fill="white" transform="translate(0.5)"/>
</clipPath>
<clipPath id="clip1_39_452">
<rect width="60" height="60" fill="white" transform="translate(218.5)"/>
</clipPath>
</defs>
</svg>
