<svg width="279" height="63" viewBox="0 0 279 63" fill="none" xmlns="http://www.w3.org/2000/svg">
<g clip-path="url(#clip0_39_447)">
<g clip-path="url(#clip1_39_447)">
<path fill-rule="evenodd" clip-rule="evenodd" d="M271.443 14.1177H225.561V8.82353C225.561 7.83528 226.337 7.05881 227.325 7.05881H232.619V8.82353C232.619 9.81175 233.396 10.5883 234.384 10.5883C235.372 10.5883 236.149 9.81175 236.149 8.82353V7.05881H260.855V8.82353C260.855 9.81175 261.631 10.5883 262.619 10.5883C263.608 10.5883 264.384 9.81175 264.384 8.82353V7.05881H269.678C270.667 7.05881 271.443 7.83528 271.443 8.82353V14.1177ZM256.514 40.6588C256.514 44.8588 253.231 47.8941 248.431 47.8941C244.408 47.8941 241.514 46.2353 239.572 43.8706L242.396 41.2588C244.055 43.2 245.925 44.2588 248.502 44.2588C250.761 44.2588 252.49 42.9177 252.49 40.8353V40.7647C252.49 38.5058 250.408 37.2353 247.161 37.2353H245.29L244.619 34.7294L250.867 28.2H240.878V24.7059H256.161V27.7059L249.702 34.2C253.196 34.6235 256.514 36.3882 256.514 40.5882V40.6588ZM269.678 3.52941H264.384V1.76472C264.384 0.776469 263.608 0 262.619 0C261.631 0 260.855 0.776469 260.855 1.76472V3.52941H236.149V1.76472C236.149 0.776469 235.372 0 234.384 0C233.396 0 232.619 0.776469 232.619 1.76472V3.52941H227.325C224.396 3.52941 222.031 5.89412 222.031 8.82353V60H274.972V8.82353C274.972 5.89412 272.608 3.52941 269.678 3.52941Z" fill="#fff"/>
</g>
</g>
<defs>
<clipPath id="clip0_39_447">
<rect width="278" height="63" fill="white" transform="translate(0.5)"/>
</clipPath>
<clipPath id="clip1_39_447">
<rect width="60" height="60" fill="white" transform="translate(218.5)"/>
</clipPath>
</defs>
</svg>
