<svg width="278" height="63" viewBox="0 0 278 63" fill="none" xmlns="http://www.w3.org/2000/svg">
<g clip-path="url(#clip0_39_1041)">
<path d="M218 48.78C218 49.82 218.36 50.7 219.08 51.42C219.8 52.14 220.7 52.5 221.78 52.5H274.28C275.28 52.5 276.16 52.14 276.92 51.42C277.68 50.7 278.04 49.82 278 48.78V18.78H218V48.78ZM218 15H278V11.28C278 10.24 277.64 9.36 276.92 8.64C276.2 7.92 275.32 7.54 274.28 7.5H221.78C220.74 7.5 219.84 7.88 219.08 8.64C218.32 9.4 217.96 10.28 218 11.28V15ZM236.78 35.64C236.78 33.04 237.68 30.84 239.48 29.04C241.28 27.24 243.5 26.32 246.14 26.28C247.78 26.28 249.34 26.72 250.82 27.6C248.94 30 248 32.68 248 35.64C248 38.6 248.94 41.28 250.82 43.68C249.34 44.56 247.78 45 246.14 45C243.54 45 241.32 44.1 239.48 42.3C237.64 40.5 236.74 38.28 236.78 35.64ZM251.78 35.64C251.78 33.04 252.68 30.84 254.48 29.04C256.28 27.24 258.5 26.32 261.14 26.28C263.78 26.24 265.98 27.16 267.74 29.04C269.5 30.92 270.42 33.12 270.5 35.64C270.58 38.16 269.66 40.38 267.74 42.3C265.82 44.22 263.62 45.12 261.14 45C258.66 44.88 256.44 43.98 254.48 42.3C252.52 40.62 251.62 38.4 251.78 35.64Z" fill="#FFFBD7"/>
</g>
<defs>
<clipPath id="clip0_39_1041">
<rect width="60" height="60" fill="white" transform="translate(218)"/>
</clipPath>
</defs>
</svg>
