<svg width="279" height="93" viewBox="0 0 279 93" fill="none" xmlns="http://www.w3.org/2000/svg">
<g clip-path="url(#clip0_39_442)">
<g clip-path="url(#clip1_39_442)">
<path d="M278.5 30C278.5 13.458 265.042 0 248.5 0C231.958 0 218.5 13.458 218.5 30C218.5 46.542 231.958 60 248.5 60C265.042 60 278.5 46.542 278.5 30ZM247.078 36.186L253.318 44.469C253.555 44.7836 253.728 45.1418 253.827 45.5232C253.926 45.9046 253.948 46.3017 253.893 46.6918C253.839 47.082 253.708 47.4575 253.508 47.797C253.308 48.1365 253.043 48.4333 252.729 48.6705C252.414 48.9077 252.056 49.0806 251.674 49.1793C251.293 49.278 250.896 49.3006 250.506 49.2459C250.116 49.1912 249.74 49.0601 249.4 48.8602C249.061 48.6604 248.764 48.3956 248.527 48.081L239.5 36.102C239.091 35.559 238.878 34.8932 238.897 34.2136C238.916 33.534 239.165 32.881 239.604 32.3615C240.042 31.8421 240.644 31.487 241.311 31.3544C241.978 31.2219 242.67 31.3198 243.274 31.632C243.976 31.743 244.75 31.8 245.605 31.8C247.711 31.8 249.328 30.366 250.084 28.095H240.784C240.187 28.095 239.615 27.8579 239.193 27.436C238.771 27.014 238.534 26.4417 238.534 25.845C238.534 25.2483 238.771 24.676 239.193 24.254C239.615 23.8321 240.187 23.595 240.784 23.595H250.471C250.201 21.435 249.286 19.746 247.939 18.855H241.534C240.738 18.855 239.975 18.5389 239.413 17.9763C238.85 17.4137 238.534 16.6506 238.534 15.855C238.534 15.0594 238.85 14.2963 239.413 13.7337C239.975 13.1711 240.738 12.855 241.534 12.855H256.534C257.33 12.855 258.093 13.1711 258.655 13.7337C259.218 14.2963 259.534 15.0594 259.534 15.855C259.534 16.6506 259.218 17.4137 258.655 17.9763C258.093 18.5389 257.33 18.855 256.534 18.855H253.699C254.398 20.256 254.839 21.867 254.995 23.595H257.284C257.881 23.595 258.453 23.8321 258.875 24.254C259.297 24.676 259.534 25.2483 259.534 25.845C259.534 26.4417 259.297 27.014 258.875 27.436C258.453 27.8579 257.881 28.095 257.284 28.095H254.734C253.84 32.316 251.104 35.553 247.078 36.186Z" fill="#fff"/>
</g>
</g>
<defs>
<clipPath id="clip0_39_442">
<rect width="278" height="93" fill="white" transform="translate(0.5)"/>
</clipPath>
<clipPath id="clip1_39_442">
<rect width="60" height="60" fill="white" transform="translate(218.5)"/>
</clipPath>
</defs>
</svg>
