<svg width="278" height="93" viewBox="0 0 278 93" fill="none" xmlns="http://www.w3.org/2000/svg">
<g clip-path="url(#clip0_39_1031)">
<path d="M278 30C278 13.458 264.542 0 248 0C231.458 0 218 13.458 218 30C218 46.542 231.458 60 248 60C264.542 60 278 46.542 278 30ZM246.578 36.186L252.818 44.469C253.055 44.7836 253.228 45.1418 253.327 45.5232C253.426 45.9046 253.448 46.3017 253.393 46.6918C253.339 47.082 253.208 47.4575 253.008 47.797C252.808 48.1365 252.543 48.4333 252.229 48.6705C251.914 48.9077 251.556 49.0806 251.174 49.1793C250.793 49.278 250.396 49.3006 250.006 49.2459C249.616 49.1912 249.24 49.0601 248.9 48.8602C248.561 48.6604 248.264 48.3956 248.027 48.081L239 36.102C238.591 35.559 238.378 34.8932 238.397 34.2136C238.416 33.534 238.665 32.881 239.104 32.3615C239.542 31.8421 240.144 31.487 240.811 31.3544C241.478 31.2219 242.17 31.3198 242.774 31.632C243.476 31.743 244.25 31.8 245.105 31.8C247.211 31.8 248.828 30.366 249.584 28.095H240.284C239.687 28.095 239.115 27.8579 238.693 27.436C238.271 27.014 238.034 26.4417 238.034 25.845C238.034 25.2483 238.271 24.676 238.693 24.254C239.115 23.8321 239.687 23.595 240.284 23.595H249.971C249.701 21.435 248.786 19.746 247.439 18.855H241.034C240.238 18.855 239.475 18.5389 238.913 17.9763C238.35 17.4137 238.034 16.6506 238.034 15.855C238.034 15.0594 238.35 14.2963 238.913 13.7337C239.475 13.1711 240.238 12.855 241.034 12.855H256.034C256.83 12.855 257.593 13.1711 258.155 13.7337C258.718 14.2963 259.034 15.0594 259.034 15.855C259.034 16.6506 258.718 17.4137 258.155 17.9763C257.593 18.5389 256.83 18.855 256.034 18.855H253.199C253.898 20.256 254.339 21.867 254.495 23.595H256.784C257.381 23.595 257.953 23.8321 258.375 24.254C258.797 24.676 259.034 25.2483 259.034 25.845C259.034 26.4417 258.797 27.014 258.375 27.436C257.953 27.8579 257.381 28.095 256.784 28.095H254.234C253.34 32.316 250.604 35.553 246.578 36.186Z" fill="#fff"/>
</g>
<defs>
<clipPath id="clip0_39_1031">
<rect width="60" height="60" fill="white" transform="translate(218)"/>
</clipPath>
</defs>
</svg>
