<svg width="278" height="123" viewBox="0 0 278 123" fill="none" xmlns="http://www.w3.org/2000/svg">
<g clip-path="url(#clip0_39_1046)">
<path d="M262.397 20.0082L267.482 25.0944C270.528 28.1402 270.528 32.6424 270.528 32.6424L271.337 31.2863C272.669 29.0528 273.69 26.3719 273.52 24.1673C273.242 20.5588 270.967 17.7783 269.606 16.4185L267.796 14.609L271.395 11.0093L258.366 10.5439L258.832 23.5721L262.397 20.0082Z" fill="#fff"/>
<path d="M233.604 40.1852L228.518 35.1009C225.472 32.0539 225.472 27.5522 225.472 27.5522L224.663 28.9077C223.332 31.1406 222.31 33.822 222.48 36.0261C222.758 39.6358 225.033 42.4162 226.395 43.7754L228.205 45.5857L224.605 49.1847L237.634 49.6501L237.168 36.6226L233.604 40.1852Z" fill="#fff"/>
<path d="M235.702 11.2966C235.702 11.7507 235.875 12.0963 236.222 12.3341C236.568 12.5718 237.093 12.7562 237.795 12.8854V9.77246C237.006 9.85962 236.459 10.0353 236.157 10.2999C235.854 10.5646 235.702 10.8964 235.702 11.2966Z" fill="#fff"/>
<path d="M241.888 16.9945C241.557 16.7625 241.053 16.5869 240.372 16.4683V19.5154C241.712 19.3429 242.382 18.8454 242.382 18.0238C242.382 17.5709 242.217 17.2272 241.888 16.9945Z" fill="#fff"/>
<path d="M253.703 14.652C253.703 6.56016 247.143 0 239.051 0C230.959 0 224.399 6.56016 224.399 14.652C224.399 22.7445 230.959 29.304 239.051 29.304C247.143 29.3047 253.703 22.7451 253.703 14.652ZM244.498 21.2179C243.53 22.0069 242.156 22.4987 240.372 22.6925V24.3634H237.795V22.7746C236.735 22.742 235.738 22.648 234.803 22.4918C233.868 22.3343 233.093 22.1154 232.477 21.8344V18.6569C232.898 18.8086 233.309 18.941 233.709 19.0545C234.108 19.168 234.52 19.2653 234.941 19.3468C235.362 19.4276 235.806 19.4922 236.27 19.5412C236.735 19.5895 237.243 19.6196 237.795 19.6302V16.0796C237.113 15.9823 236.438 15.85 235.767 15.6819C235.097 15.5151 234.496 15.2642 233.96 14.928C233.425 14.5937 232.989 14.1502 232.654 13.5983C232.321 13.0476 232.152 12.3344 232.152 11.46C232.152 10.7456 232.282 10.1115 232.541 9.55451C232.8 8.99754 233.173 8.51704 233.66 8.11126C234.146 7.70547 234.738 7.37929 235.436 7.13027C236.132 6.88252 236.918 6.70938 237.794 6.61222V4.94064H240.372V6.56144C241.16 6.60536 241.964 6.69507 242.779 6.82987C243.594 6.96468 244.343 7.15223 245.024 7.38997V10.5995C243.361 10.0595 241.808 9.75588 240.372 9.69127V13.2909C241.052 13.3988 241.725 13.5412 242.39 13.7199C243.055 13.8987 243.649 14.1584 244.174 14.499C244.697 14.839 245.125 15.2849 245.454 15.8362C245.784 16.3869 245.949 17.0957 245.949 17.9607C245.95 19.343 245.465 20.4281 244.498 21.2179Z" fill="#fff"/>
<path d="M257.233 30.6958C249.141 30.6958 242.581 37.2554 242.581 45.3478C242.581 53.4397 249.141 59.9998 257.233 59.9998C265.325 59.9998 271.885 53.4397 271.885 45.3478C271.885 37.2554 265.325 30.6958 257.233 30.6958ZM263.138 53.6649C262.901 53.7621 262.622 53.8511 262.304 53.932C261.984 54.0136 261.652 54.0801 261.306 54.1346C260.96 54.1885 260.606 54.2293 260.244 54.2562C259.883 54.2826 259.534 54.2963 259.198 54.2963C254.735 54.2963 252.012 52.5238 251.028 48.9787H248.937V46.369H250.623C250.612 46.2178 250.604 46.0686 250.598 45.9224C250.593 45.7769 250.59 45.6289 250.59 45.4764C250.59 45.1308 250.606 44.7953 250.639 44.4716H248.937V41.8611H251.077C251.616 40.0453 252.574 38.6484 253.946 37.67C255.318 36.6915 257.081 36.2022 259.232 36.2022C259.556 36.2022 259.898 36.2192 260.261 36.2511C260.623 36.2838 260.971 36.327 261.307 36.381C261.641 36.4356 261.956 36.502 262.247 36.5835C262.539 36.6651 262.783 36.7491 262.977 36.835V40.0771C262.479 39.9046 261.922 39.7584 261.307 39.6392C260.691 39.5207 260.08 39.4611 259.475 39.4611C257.335 39.4611 255.892 40.2608 255.146 41.8602H260.626V44.4709H254.547C254.513 44.7619 254.498 45.0705 254.498 45.3955C254.498 45.5673 254.503 45.7467 254.513 45.9305C254.525 46.1143 254.535 46.2598 254.547 46.3683H259.411V48.9782H255.114C255.47 49.7133 256.006 50.2396 256.719 50.5594C257.432 50.8775 258.373 51.0374 259.54 51.0374C259.81 51.0374 260.104 51.0217 260.423 50.989C260.742 50.9564 261.063 50.9137 261.388 50.8585C261.712 50.8052 262.026 50.7406 262.329 50.6641C262.63 50.5888 262.901 50.508 263.139 50.4208V53.6649H263.138Z" fill="#fff"/>
</g>
<defs>
<clipPath id="clip0_39_1046">
<rect width="60" height="60" fill="white" transform="translate(218)"/>
</clipPath>
</defs>
</svg>
