<svg width="279" height="123" viewBox="0 0 279 123" fill="none" xmlns="http://www.w3.org/2000/svg">
<g clip-path="url(#clip0_39_457)">
<g clip-path="url(#clip1_39_457)">
<path d="M262.897 20.0079L267.982 25.0941C271.028 28.14 271.028 32.6422 271.028 32.6422L271.837 31.2861C273.169 29.0525 274.19 26.3717 274.02 24.1671C273.742 20.5586 271.467 17.7781 270.106 16.4183L268.296 14.6087L271.895 11.0091L258.866 10.5437L259.332 23.5719L262.897 20.0079Z" fill="#FFFBD7"/>
<path d="M234.104 40.1852L229.018 35.1009C225.972 32.0539 225.972 27.5522 225.972 27.5522L225.163 28.9077C223.832 31.1406 222.81 33.822 222.98 36.0261C223.258 39.6358 225.533 42.4162 226.895 43.7754L228.705 45.5857L225.105 49.1847L238.134 49.6501L237.668 36.6226L234.104 40.1852Z" fill="#FFFBD7"/>
<path d="M236.202 11.2963C236.202 11.7505 236.375 12.0961 236.722 12.3338C237.068 12.5716 237.593 12.756 238.295 12.8852V9.77222C237.506 9.85937 236.959 10.0351 236.657 10.2997C236.354 10.5644 236.202 10.8961 236.202 11.2963Z" fill="#FFFBD7"/>
<path d="M242.388 16.9948C242.057 16.7627 241.553 16.5871 240.872 16.4685V19.5156C242.212 19.3431 242.882 18.8457 242.882 18.024C242.882 17.5712 242.717 17.2274 242.388 16.9948Z" fill="#FFFBD7"/>
<path d="M254.203 14.652C254.203 6.56016 247.643 0 239.551 0C231.459 0 224.899 6.56016 224.899 14.652C224.899 22.7445 231.459 29.304 239.551 29.304C247.643 29.3047 254.203 22.7451 254.203 14.652ZM244.998 21.2179C244.03 22.0069 242.656 22.4987 240.872 22.6925V24.3634H238.295V22.7746C237.235 22.742 236.238 22.648 235.303 22.4918C234.368 22.3343 233.593 22.1154 232.977 21.8344V18.6569C233.398 18.8086 233.809 18.941 234.209 19.0545C234.608 19.168 235.02 19.2653 235.441 19.3468C235.862 19.4276 236.306 19.4922 236.77 19.5412C237.235 19.5895 237.743 19.6196 238.295 19.6302V16.0796C237.613 15.9823 236.938 15.85 236.267 15.6819C235.597 15.5151 234.996 15.2642 234.46 14.928C233.925 14.5937 233.489 14.1502 233.154 13.5983C232.821 13.0476 232.652 12.3344 232.652 11.46C232.652 10.7456 232.782 10.1115 233.041 9.55451C233.3 8.99754 233.673 8.51704 234.16 8.11126C234.646 7.70547 235.238 7.37929 235.936 7.13027C236.632 6.88252 237.418 6.70938 238.294 6.61222V4.94064H240.872V6.56144C241.66 6.60536 242.464 6.69507 243.279 6.82987C244.094 6.96468 244.843 7.15223 245.524 7.38997V10.5995C243.861 10.0595 242.308 9.75588 240.872 9.69127V13.2909C241.552 13.3988 242.225 13.5412 242.89 13.7199C243.555 13.8987 244.149 14.1584 244.674 14.499C245.197 14.839 245.625 15.2849 245.954 15.8362C246.284 16.3869 246.449 17.0957 246.449 17.9607C246.45 19.343 245.965 20.4281 244.998 21.2179Z" fill="#FFFBD7"/>
<path d="M257.733 30.6958C249.641 30.6958 243.081 37.2554 243.081 45.3478C243.081 53.4397 249.641 59.9998 257.733 59.9998C265.825 59.9998 272.385 53.4397 272.385 45.3478C272.385 37.2554 265.825 30.6958 257.733 30.6958ZM263.638 53.6649C263.401 53.7621 263.122 53.8511 262.804 53.932C262.484 54.0136 262.152 54.0801 261.806 54.1346C261.46 54.1885 261.106 54.2293 260.744 54.2562C260.383 54.2826 260.034 54.2963 259.698 54.2963C255.235 54.2963 252.512 52.5238 251.528 48.9787H249.437V46.369H251.123C251.112 46.2178 251.104 46.0686 251.098 45.9224C251.093 45.7769 251.09 45.6289 251.09 45.4764C251.09 45.1308 251.106 44.7953 251.139 44.4716H249.437V41.8611H251.577C252.116 40.0453 253.074 38.6484 254.446 37.67C255.818 36.6915 257.581 36.2022 259.732 36.2022C260.056 36.2022 260.398 36.2192 260.761 36.2511C261.123 36.2838 261.471 36.327 261.807 36.381C262.141 36.4356 262.456 36.502 262.747 36.5835C263.039 36.6651 263.283 36.7491 263.477 36.835V40.0771C262.979 39.9046 262.422 39.7584 261.807 39.6392C261.191 39.5207 260.58 39.4611 259.975 39.4611C257.835 39.4611 256.392 40.2608 255.646 41.8602H261.126V44.4709H255.047C255.013 44.7619 254.998 45.0705 254.998 45.3955C254.998 45.5673 255.003 45.7467 255.013 45.9305C255.025 46.1143 255.035 46.2598 255.047 46.3683H259.911V48.9782H255.614C255.97 49.7133 256.506 50.2396 257.219 50.5594C257.932 50.8775 258.873 51.0374 260.04 51.0374C260.31 51.0374 260.604 51.0217 260.923 50.989C261.242 50.9564 261.563 50.9137 261.888 50.8585C262.212 50.8052 262.526 50.7406 262.829 50.6641C263.13 50.5888 263.401 50.508 263.639 50.4208V53.6649H263.638Z" fill="#FFFBD7"/>
</g>
</g>
<defs>
<clipPath id="clip0_39_457">
<rect width="278" height="123" fill="white" transform="translate(0.5)"/>
</clipPath>
<clipPath id="clip1_39_457">
<rect width="60" height="60" fill="white" transform="translate(218.5)"/>
</clipPath>
</defs>
</svg>
